<svg height="480pt" viewBox="0 0 480 479" width="480pt" xmlns="http://www.w3.org/2000/svg"><path d="m31.527344 167.492188 16 264h192.472656l16-264zm0 0" fill="#bdfdff"/><path d="m16 103.492188h264v64h-264zm0 0" fill="#57a4ff"/><path d="m208 255.492188c0-61.855469 50.144531-112 112-112h32c61.855469 0 112 50.144531 112 112zm0 0" fill="#ffa733"/><path d="m208 319.492188c0 61.855468 50.144531 112 112 112h32c61.855469 0 112-50.144532 112-112zm0 0" fill="#ffa733"/><path d="m216 287.492188h240v32h-240zm0 0" fill="#c0ab91"/><path d="m224 255.492188h216v32h-216zm0 0" fill="#cd2a00"/><path d="m320 255.492188h64c0 17.671874-14.328125 32-32 32s-32-14.328126-32-32zm0 0" fill="#64c37d"/><path d="m240 255.492188h64c0 17.671874-14.328125 32-32 32s-32-14.328126-32-32zm0 0" fill="#64c37d"/><path d="m452 431.492188c11.046875 0 20 8.953124 20 20 0 11.046874-8.953125 20-20 20h-424c-11.046875 0-20-8.953126-20-20 0-11.046876 8.953125-20 20-20zm0 0" fill="#898890"/><path d="m444 287.492188-52 64-47.679688-64zm0 0" fill="#ffeb99"/><g fill="#231f20"><path d="m452 423.492188h-40.390625c37.300781-21.351563 60.335937-61.019532 60.390625-104 0-4.417969-3.582031-8-8-8v-24c0-4.417969-3.582031-8-8-8h-8v-16h16c4.417969 0 8-3.582032 8-8-.074219-66.242188-53.757812-119.925782-120-120h-32c-10.820312.03125-21.585938 1.53125-32 4.464843v-36.464843c0-4.417969-3.582031-8-8-8h-88v-43.296876l67.886719-37.710937-7.773438-13.984375-72 40c-2.539062 1.410156-4.113281 4.085938-4.113281 6.992188v48h-160c-4.417969 0-8 3.582031-8 8v64c0 4.417968 3.582031 8 8 8h8.472656l15.03125 248h-11.503906c-15.464844 0-28 12.535156-28 28 0 15.464843 12.535156 28 28 28h424c15.464844 0 28-12.535157 28-28 0-15.464844-12.535156-28-28-28zm-100 0h-32c-54.308594-.0625-99.453125-41.855469-103.695312-96h147.847656l21.449218 28.800781c1.476563 1.972656 3.78125 3.152343 6.246094 3.199219h.152344c2.40625 0 4.6875-1.082032 6.207031-2.953126l23.609375-29.046874h33.878906c-4.242187 54.144531-49.386718 95.9375-103.695312 96zm-103.046875-7.511719c3.667969 2.71875 7.488281 5.226562 11.4375 7.511719h-11.894531zm-16.953125-152.488281h.800781c1.234375 5.820312 3.761719 11.289062 7.398438 16h-8.199219zm160.28125 74.976562-32-42.976562h66.917969zm-40.28125-58.976562c-10.132812-.042969-19.148438-6.445313-22.527344-16h45.054688c-3.378906 9.554687-12.394532 15.957031-22.527344 16zm-31.792969 0h-16.414062c3.636719-4.710938 6.164062-10.179688 7.398437-16h1.601563c1.238281 5.824218 3.773437 11.292968 7.414062 16zm-48.207031 0c-10.132812-.042969-19.148438-6.445313-22.527344-16h45.054688c-3.378906 9.554687-12.394532 15.957031-22.527344 16zm-48 16h116.320312l11.910157 16h-128.230469zm210.824219 16 13-16h.175781v16zm-2.824219-32h-48.207031c3.636719-4.710938 6.164062-10.179688 7.398437-16h40.808594zm-80-128c54.308594.0625 99.453125 41.855468 103.695312 96h-239.390624c4.242187-54.144532 49.386718-95.9375 103.695312-96zm-328-40h248v34.085937c-8.40625 3.714844-16.355469 8.382813-23.695312 13.914063h-224.304688zm16.496094 64h190.3125c-19.820313 21.933593-30.796875 50.4375-30.808594 80 0 4.417968 3.582031 8 8 8h8v16c-4.417969 0-8 3.582031-8 8v24c-4.417969 0-8 3.582031-8 8 .003906 31.0625 12.101562 60.902343 33.726562 83.199218l-1.253906 20.800782h-176.945312zm411.503906 288h-424c-6.628906 0-12-5.371094-12-12 0-6.628907 5.371094-12 12-12h424c6.628906 0 12 5.371093 12 12 0 6.628906-5.371094 12-12 12zm0 0"/><path d="m296 199.492188h16v16h-16zm0 0"/><path d="m328 175.492188h16v16h-16zm0 0"/><path d="m368 199.492188h16v16h-16zm0 0"/></g></svg>