<svg height="470pt" viewBox="-3 0 470 470.992" width="470pt" xmlns="http://www.w3.org/2000/svg"><path d="m8.496094 102.992188h264v64h-264zm0 0" fill="#57a4ff"/><path d="m24.023438 166.992188 16 264h192.472656l16-264zm0 0" fill="#bdfdff"/><path d="m247.527344 182.992188.96875-16h-224.472656l.96875 16zm0 0" fill="#46f8ff"/><path d="m200.496094 254.992188c0-61.855469 50.144531-112 112-112h32c61.855468 0 112 50.144531 112 112zm0 0" fill="#ffa733"/><path d="m200.496094 318.992188c0 61.855468 50.144531 112 112 112h32c61.855468 0 112-50.144532 112-112zm0 0" fill="#ffa733"/><path d="m208.496094 286.992188h240v32h-240zm0 0" fill="#c0ab91"/><path d="m216.496094 254.992188h216v32h-216zm0 0" fill="#cd2a00"/><path d="m312.496094 254.992188h64c0 17.671874-14.328125 32-32 32s-32-14.328126-32-32zm0 0" fill="#64c37d"/><path d="m232.496094 254.992188h64c0 17.671874-14.328125 32-32 32s-32-14.328126-32-32zm0 0" fill="#64c37d"/><path d="m444.496094 430.992188c11.046875 0 20 8.953124 20 20 0 11.046874-8.953125 20-20 20h-424c-11.046875 0-20-8.953126-20-20 0-11.046876 8.953125-20 20-20zm0 0" fill="#898890"/><path d="m428.496094 286.992188-52 64-47.679688-64zm0 0" fill="#ffeb99"/><path d="m184.496094 102.992188h-16v-56c0-2.90625 1.574218-5.582032 4.113281-6.992188l72-40 7.773437 13.984375-67.886718 37.710937zm0 0" fill="#c0ab91"/><g fill="#ffb655"><path d="m288.496094 198.992188h16v16h-16zm0 0"/><path d="m320.496094 174.992188h16v16h-16zm0 0"/><path d="m360.496094 198.992188h16v16h-16zm0 0"/></g><path d="m36.496094 110.992188h32c6.628906 0 12 5.371093 12 12 0 6.628906-5.371094 12-12 12h-32c-6.628906 0-12-5.371094-12-12 0-6.628907 5.371094-12 12-12zm0 0" fill="#a2ccff"/></svg>