<svg height="512pt" viewBox="0 0 512 512" width="512pt" xmlns="http://www.w3.org/2000/svg"><path d="m45.457031 494.585938v-296.726563h421.03125v296.726563c0 5.472656-4.4375 9.914062-9.917969 9.914062h-401.195312c-5.476562 0-9.917969-4.4375-9.917969-9.914062zm0 0" fill="#fdedd3"/><path d="m420.488281 197.859375v296.726563c0 5.472656-4.4375 9.914062-9.917969 9.914062h46c5.476563 0 9.917969-4.4375 9.917969-9.914062v-296.726563zm0 0" fill="#fae3be"/><path d="m98.035156 504.5v-243.140625c0-6.101563 4.945313-11.042969 11.042969-11.042969h97.890625c6.097656 0 11.042969 4.941406 11.042969 11.042969v243.140625zm0 0" fill="#6f6571"/><path d="m463.941406 113.226562 34.195313 75.453126c2.96875 6.554687-1.824219 13.988281-9.019531 13.988281h-466.289063c-7.195313 0-11.988281-7.433594-9.015625-13.988281l34.191406-75.453126c1.605469-3.539062 5.132813-5.816406 9.019532-5.816406h397.902343c3.886719 0 7.414063 2.277344 9.015625 5.816406zm0 0" fill="#fecf89"/><path d="m498.136719 188.679688-34.195313-75.453126c-1.601562-3.539062-5.128906-5.816406-9.015625-5.816406h-46c3.886719 0 7.414063 2.273438 9.015625 5.816406l34.195313 75.453126c2.96875 6.554687-1.824219 13.988281-9.019531 13.988281h46c7.195312 0 11.988281-7.433594 9.019531-13.988281zm0 0" fill="#f7c272"/><path d="m285.820312 250.316406h180.667969v185.621094h-180.667969zm0 0" fill="#d9e6f6"/><path d="m422.488281 250.316406h44v185.621094h-44zm0 0" fill="#c7dcf6"/><path d="m391.320312 7.5c0 76.164062-61.738281 137.90625-137.894531 137.90625s-137.890625-61.742188-137.890625-137.90625zm0 0" fill="#e46570"/><path d="m466.488281 464.5h-203.527343c-3.582032 0-6.488282-2.90625-6.488282-6.488281v-16.023438c0-3.582031 2.90625-6.488281 6.488282-6.488281h203.527343zm0 0" fill="#fecf89"/><path d="m422.488281 435.5h44v29h-44zm0 0" fill="#f7c272"/><path d="m285.980469 339.234375s89.742187-10.644531 89.742187-87.714844h.507813c0 77.070313 89.742187 87.714844 89.742187 87.714844v-89.234375h-180.5zm0 0" fill="#fecf89"/><path d="m421.972656 250v74.746094c22.140625 11.890625 44 14.488281 44 14.488281v-89.234375zm0 0" fill="#f7c272"/><path d="m511.304688 199.570312-43.164063-95.253906c-1.214844-2.683594-3.886719-4.40625-6.832031-4.40625h-95.707032c5.347657-6.480468 10.140626-13.4375 14.316407-20.785156.910156.390625 1.910156.605469 2.960937.605469h16.964844c21.980469 0 39.859375-17.882813 39.859375-39.863281.003906-21.984376-17.878906-39.867188-39.859375-39.867188h-202.871094c-9.671875 0-9.671875 15 0 15h186.632813c-3.902344 68.429688-60.796875 122.90625-130.179688 122.90625-69.378906 0-126.277343-54.476562-130.179687-122.90625h32.726562c9.675782 0 9.675782-15 0-15h-40.4375c-4.144531 0-7.5 3.359375-7.5 7.5 0 35.066406 12.472656 67.269531 33.21875 92.410156h-90.617187c-2.941407 0-5.613281 1.726563-6.832031 4.40625l-43.164063 95.253906c-2.1875 4.828126 1.5 10.597657 6.832031 10.597657h30.484375v294.332031c0 4.140625 3.359375 7.5 7.5 7.5h313.515625c9.675782 0 9.675782-15 0-15h-133.460937v-246.6875c0-4.140625-3.355469-7.5-7.5-7.5h-119.976563c-4.140625 0-7.5 3.359375-7.5 7.5v43.6875c0 9.675781 15 9.675781 15 0v-36.1875h104.976563v239.1875h-104.976563v-160c0-9.675781-15-9.675781-15 0v160h-37.578125v-285.640625h406.03125v31.453125h-173.167969c-4.140624 0-7.5 3.359375-7.5 7.5v177.6875h-21.847656c-4.140625 0-7.5 3.359375-7.5 7.5v29c0 4.140625 3.359375 7.5 7.5 7.5h202.515625v25h-48.015625c-9.671875 0-9.671875 15 0 15h55.515625c4.140625 0 7.5-3.359375 7.5-7.5v-294.332031h30.484375c5.300782 0 9.03125-5.742188 6.832032-10.597657zm-52.316407 130.066407c-7.515625-1.496094-21.859375-5.125-36.160156-12.964844-24.769531-13.574219-38.234375-33.355469-40.117187-58.859375h76.277343zm-92.253906-71.824219c-1.875 25.371094-15.214844 45.082031-39.742187 58.652344-12.714844 7.035156-25.609376 10.738281-33.671876 12.554687v-71.207031zm-73.414063 86.554688c8.574219-1.703126 24.476563-5.753907 40.507813-14.539063 19.410156-10.640625 33.183594-25.011719 40.894531-42.425781 7.710938 17.414062 21.484375 31.785156 40.894532 42.425781 18.035156 9.882813 35.910156 13.777344 43.371093 15.070313v83.101562h-76.515625v-30h53c9.675782 0 9.675782-15 0-15h-119c-9.671875 0-9.671875 15 0 15h51v30h-74.152344zm-29.347656 112.632812v-14h19.339844c.785156.277344 1.625.4375 2.507812.4375h171.152344v13.5625zm160.734375-417.132812c0 13.710937-11.152343 24.863281-24.863281 24.863281h-12.769531c6.621093-15.394531 10.65625-32.15625 11.554687-49.730469h1.214844c13.710938 0 24.863281 11.15625 24.863281 24.867188zm-405.601562 155.300781 36.367187-80.257813h98.5c.484375 0 .953125-.046875 1.410156-.136718 10.527344 9.632812 22.46875 17.738281 35.476563 23.964843h-67.003906c-9.671875 0-9.671875 15 0 15h265.378906c9.675781 0 9.675781-15 0-15h-73.238281c12.945312-6.199219 24.839844-14.253906 35.328125-23.828125h105.148437l36.367188 80.257813zm0 0"/><path d="m285.972656 117.894531c.75 0 1.511719-.113281 2.265625-.355469 19.355469-6.136718 36.847657-17.371093 50.585938-32.496093 6.507812-7.160157-4.597657-17.246094-11.101563-10.085938-11.964844 13.164063-27.183594 22.949219-44.019531 28.285157-8.007813 2.542968-5.992187 14.652343 2.269531 14.652343zm0 0"/></svg>