<?xml version="1.0" encoding="iso-8859-1"?>
<!-- Generator: Adobe Illustrator 19.0.0, SVG Export Plug-In . SVG Version: 6.00 Build 0)  -->
<svg version="1.1" id="Capa_1" xmlns="http://www.w3.org/2000/svg" xmlns:xlink="http://www.w3.org/1999/xlink" x="0px" y="0px"
	 viewBox="0 0 512.002 512.002" style="enable-background:new 0 0 512.002 512.002;" xml:space="preserve">
<path style="fill:#FEE47A;" d="M256.129,64L256.129,64c33.856,0,65.314,10.262,91.439,27.841C342.509,45.812,303.504,10,256.129,10
	s-86.382,35.812-91.439,81.841C190.815,74.262,222.273,64,256.129,64z"/>
<g>
	<path style="fill:#FDC9A6;" d="M86.259,253.478L86.259,253.478c-18.349,0-33.233,14.857-33.267,33.206l-0.046,25.329
		c-0.033,18.396,14.87,33.327,33.267,33.327h10.673h318.232h10.673c18.396,0,33.3-14.931,33.267-33.327l-0.046-25.329
		c-0.033-18.349-14.918-33.206-33.267-33.206l0,0H86.259z"/>
	<path style="fill:#FDC9A6;" d="M420.129,196.868v95.304c0,99.279-67.616,185.798-163.954,209.788l-0.162,0.04l0,0
		C159.71,477.985,92.129,391.482,92.129,292.23v-95.362L420.129,196.868L420.129,196.868z"/>
</g>
<path style="fill:#FEE47A;" d="M269.714,196.868L269.714,196.868c31.439,45.99,83.556,73.493,139.265,73.493h11.151V256v-28
	c0-90.575-73.425-164-164-164l0,0c-90.575,0-164,73.425-164,164v28l4.921,14.36l7.189-1.627
	c80.443-18.206,154.914-56.625,216.375-111.625l4.341-3.885L269.714,196.868z"/>
<path style="fill:#FFCCEB;" d="M371.647,419.518l-36.849,36.849l-56.352-23.345c-3.953-1.638-6.227-5.813-5.458-10.022l0.037-0.205
	c6.179-33.84,32.661-60.322,66.501-66.501l0,0c4.302-0.785,8.552,1.606,10.114,5.69L371.647,419.518z"/>
<polygon style="fill:#5770FF;" points="454.129,502 371.647,419.518 334.798,456.367 380.431,502 "/>
<path d="M198.591,295.59c-10.436,10.438-27.415,10.436-37.851,0c-3.906-3.904-10.236-3.904-14.143,0
	c-3.905,3.905-3.905,10.237,0,14.143c9.117,9.116,21.093,13.675,33.068,13.675c11.975,0,23.95-4.559,33.067-13.675
	c3.905-3.905,3.905-10.237,0-14.143C208.827,291.686,202.497,291.686,198.591,295.59z"/>
<path d="M351.263,295.59c-10.435,10.435-27.414,10.437-37.851,0c-3.906-3.904-10.236-3.904-14.143,0
	c-3.905,3.905-3.905,10.237,0,14.143c9.117,9.116,21.093,13.675,33.067,13.675c11.976,0,23.951-4.559,33.068-13.675
	c3.905-3.905,3.905-10.237,0-14.143C361.499,291.686,355.169,291.686,351.263,295.59z"/>
<path d="M301.607,473.789c-14.385,7.733-29.713,13.747-45.589,17.891c-90.734-23.777-153.89-105.436-153.89-199.45v-12.766
	l4.316-0.977c56.932-12.885,111.762-36.149,160.805-68.006c33.711,43.927,85.976,69.88,141.729,69.88h1.15v11.812
	c0,33.929-8.462,67.626-24.472,97.451c-2.612,4.866-0.785,10.929,4.081,13.54c1.505,0.809,3.124,1.191,4.721,1.191
	c3.565,0,7.016-1.911,8.819-5.272c7.469-13.914,13.424-28.6,17.822-43.741h4.691c11.571,0,22.446-4.511,30.622-12.7
	c8.175-8.189,12.665-19.073,12.645-30.646l-0.046-25.329c-0.04-22.334-17.115-40.762-38.883-42.966V228
	c0-58.413-28.934-110.194-73.221-141.768C349.258,36.76,306.712,0,256.129,0C205.546,0,163,36.76,155.349,86.232
	c-44.287,31.574-73.22,83.355-73.22,141.768v15.681c-21.888,2.086-39.096,20.565-39.137,42.985l-0.046,25.33
	c-0.021,11.571,4.47,22.455,12.645,30.645c8.176,8.189,19.051,12.7,30.622,12.7h4.845c21.966,75.896,82.733,136.462,162.536,156.362
	c0.795,0.198,1.607,0.297,2.42,0.297c0.81,0,1.62-0.099,2.411-0.295l0.167-0.042c18.297-4.557,35.956-11.372,52.486-20.259
	c4.864-2.614,6.688-8.678,4.072-13.543C312.535,472.997,306.474,471.174,301.607,473.789z M449.012,286.703l0.046,25.328
	c0.012,6.224-2.403,12.076-6.8,16.48c-4.362,4.369-10.152,6.788-16.32,6.825c2.762-14.194,4.191-28.659,4.191-43.165v-28.273
	C440.848,265.955,448.991,275.395,449.012,286.703z M256.129,20c34.348,0,64.073,21.084,76.189,51.592
	C309.293,60.332,283.439,54,256.129,54s-53.166,6.332-76.189,17.593C192.056,41.084,221.781,20,256.129,20z M256.129,74
	c84.916,0,154,69.084,154,154v28v4.36h-1.15c-49.121,0-95.2-22.677-125.158-61.127c6.923-4.909,13.722-9.987,20.372-15.245
	c4.332-3.426,5.067-9.715,1.643-14.047c-3.426-4.331-9.715-5.066-14.047-1.643c-55.309,43.731-120.89,75.079-189.659,90.659V256v-28
	C102.129,143.084,171.213,74,256.129,74z M86.213,335.341c-6.223,0-12.07-2.426-16.467-6.829c-4.396-4.404-6.812-10.257-6.8-16.479
	l0.046-25.329c0.021-11.397,8.292-20.895,19.137-22.85v28.376c0,14.694,1.408,29.112,4.107,43.111L86.213,335.341L86.213,335.341z"
	/>
<path d="M324.819,163.347c2.371,0,4.752-0.839,6.659-2.543l0.138-0.123c4.118-3.681,4.474-10.002,0.794-14.12
	s-10.002-4.475-14.12-0.794l-0.138,0.123c-4.118,3.681-4.474,10.002-0.794,14.12C319.335,162.221,322.07,163.347,324.819,163.347z"
	/>
<path d="M380.224,413.954l-21.245-55.543c-3.281-8.575-12.211-13.605-21.251-11.953c-37.702,6.885-67.658,36.841-74.536,74.512
	l-0.043,0.235c-1.604,8.783,3.219,17.64,11.469,21.057l54.514,22.583l44.228,44.228c1.953,1.952,4.512,2.929,7.071,2.929
	s5.118-0.977,7.071-2.929c3.905-3.905,3.905-10.237,0-14.143l-38.562-38.562l22.707-22.707l49.68,49.68
	c3.906,3.904,10.236,3.904,14.143,0c3.905-3.905,3.905-10.237,0-14.143L380.224,413.954z M340.573,366.272l19.416,50.761
	l-27.538,27.538l-49.493-20.503C288.491,394.997,311.533,371.894,340.573,366.272z"/>
<path d="M454.132,492c-2.63,0-5.21,1.069-7.08,2.93c-1.86,1.86-2.92,4.44-2.92,7.07s1.06,5.21,2.92,7.069
	c1.87,1.86,4.45,2.931,7.08,2.931s5.21-1.07,7.07-2.931c1.859-1.859,2.93-4.439,2.93-7.069s-1.07-5.21-2.93-7.07
	C459.341,493.069,456.762,492,454.132,492z"/>
<g>
</g>
<g>
</g>
<g>
</g>
<g>
</g>
<g>
</g>
<g>
</g>
<g>
</g>
<g>
</g>
<g>
</g>
<g>
</g>
<g>
</g>
<g>
</g>
<g>
</g>
<g>
</g>
<g>
</g>
</svg>
