<svg height="512pt" viewBox="-25 0 512 512.00112" width="512pt" xmlns="http://www.w3.org/2000/svg"><path d="m454.972656 366.152344c0-28.976563-100.171875-52.464844-223.738281-52.464844-123.5625 0-223.734375 23.488281-223.734375 52.464844 0 28.972656 100.171875 52.460937 223.734375 52.460937 123.566406 0 223.738281-23.488281 223.738281-52.460937zm0 0" fill="#abe0da"/><g fill="#38aaff"><path d="m37.808594 481.617188c-5.332032 0-9.65625-4.324219-9.65625-9.65625v-128.695313h19.308594v128.695313c0 5.332031-4.320313 9.65625-9.652344 9.65625zm0 0"/><path d="m231.421875 504.503906h-.375c-5.332031 0-9.652344-4.324218-9.652344-9.65625v-128.695312h19.683594v128.695312c0 5.332032-4.320313 9.65625-9.65625 9.65625zm0 0"/><path d="m424.664062 481.617188c-5.332031 0-9.65625-4.324219-9.65625-9.65625v-128.695313h19.308594v128.695313c.003906 5.332031-4.320312 9.65625-9.652344 9.65625zm0 0"/></g><path d="m454.972656 337.710938c0-28.972657-100.171875-52.460938-223.738281-52.460938-123.5625 0-223.734375 23.488281-223.734375 52.460938 0 28.976562 100.171875 52.464843 223.734375 52.464843 123.566406 0 223.738281-23.488281 223.738281-52.464843zm0 0" fill="#ffdf49"/><path d="m454.964844 337.710938c0 2.421874-.699219 4.8125-2.058594 7.140624-14.839844-25.589843-108.429688-45.320312-221.671875-45.320312-113.238281 0-206.828125 19.730469-221.667969 45.320312-1.359375-2.328124-2.0625-4.71875-2.0625-7.140624 0-28.96875 100.160156-52.457032 223.730469-52.457032s223.730469 23.488282 223.730469 52.457032zm0 0" fill="#ffbd47"/><path d="m394.492188 337.710938c0-14.757813-73.09375-26.722657-163.257813-26.722657s-163.253906 11.964844-163.253906 26.722657c0 14.757812 73.089843 26.722656 163.253906 26.722656s163.257813-11.964844 163.257813-26.722656zm0 0" fill="#4c78a0"/><path d="m111.472656 198.148438h-44.613281c-8.421875 0-12.308594-10.46875-5.925781-15.960938 11.546875-9.941406 26.277344-15.410156 41.515625-15.410156h9.019531c4.574219 0 8.28125 3.707031 8.28125 8.28125v14.808594c.003906 4.574218-3.707031 8.28125-8.277344 8.28125zm0 0" fill="#628fb1"/><path d="m122.9375 113.292969h-44.613281c-8.421875 0-12.304688-10.46875-5.925781-15.960938 11.546874-9.945312 26.28125-15.414062 41.515624-15.414062h9.023438c4.574219 0 8.28125 3.707031 8.28125 8.28125v14.808593c0 4.578126-3.707031 8.285157-8.28125 8.285157zm0 0" fill="#4c78a0"/><path d="m243.851562 133.699219c-3.917968 0-7.8125-1.664063-10.535156-4.894531l-44.21875-52.453126-63.652344 17.285157c-7.335937 1.996093-14.90625-2.339844-16.898437-9.679688-1.992187-7.339843 2.339844-14.90625 9.679687-16.902343l72.128907-19.585938c5.167969-1.402344 10.683593.320312 14.136719 4.414062l49.882812 59.167969c4.898438 5.816407 4.160156 14.503907-1.65625 19.40625-2.582031 2.179688-5.734375 3.242188-8.867188 3.242188zm0 0" fill="#bfa394"/><path d="m108.195312 175.859375c-3.777343 0-7.535156-1.539063-10.253906-4.570313-5.082031-5.660156-4.613281-14.367187 1.046875-19.449218 24.191407-21.710938 55.53125-33.527344 90.640625-34.160156 26.195313-.472657 45.453125 5.445312 46.261719 5.695312 7.257813 2.269531 11.304687 9.996094 9.035156 17.253906-2.265625 7.25-9.96875 11.292969-17.21875 9.046875-.160156-.050781-16.519531-4.984375-38.460937-4.4375-28.421875.695313-52.597656 9.8125-71.855469 27.097657-2.632813 2.363281-5.917969 3.523437-9.195313 3.523437zm0 0" fill="#d6bcab"/><path d="m259.167969 52.238281c18.289062 34.613281 47.117187 56.4375 69.601562 69.144531l13.984375-19.789062c-19.808594-10.890625-46.28125-30.09375-62.375-60.5625-2.488281-4.707031-7.660156-7.074219-12.636718-6.21875-1.21875.207031-2.421876.609375-3.574219 1.21875-5.855469 3.09375-8.09375 10.347656-5 16.207031zm0 0" fill="#2081f6"/><path d="m373.65625 127.832031s-.886719 21.378907-8.964844 39.195313c-8.871094 19.546875-29.136718 44.800781-75.375 54.132812-.796875.15625-1.601562.234375-2.390625.234375-5.847656 0-11.042969-4.289062-11.871093-10.402343-.84375-6.277344 3.542968-12.125 9.746093-13.394532 27.902344-5.679687 47.035157-18.515625 56.917969-38.140625-.089844.050781-.1875.097657-.277344.148438-2.460937 1.347656-5.027344 2.65625-7.707031 3.90625-16.425781 7.628906-33.648437 11.496093-51.25 11.496093-1.347656 0-2.707031-.03125-4.0625-.070312-21.125-.714844-42.324219-6.984375-63.082031-18.648438-3.050782-1.722656-4.042969-5.660156-2.214844-8.652343l5.5625-9.113281 21.90625-35.878907c1.722656-2.824219 5.355469-3.796875 8.269531-2.222656 20.550781 11.113281 39.390625 12.421875 57.421875 4.046875 5.992188-2.785156 11.003906-6.230469 14.8125-9.300781 5.375-4.324219 13.039063-4.300781 18.484375-.0625l28.425781 22.15625c3.453126 2.707031 5.351563 6.574219 5.648438 10.570312zm0 0" fill="#38aaff"/><path d="m341.441406 159.605469c-2.460937 1.347656-5.027344 2.65625-7.707031 3.90625-16.425781 7.628906-33.652344 11.496093-51.25 11.496093-1.347656 0-2.707031-.03125-4.066406-.070312-21.121094-.71875-42.320313-6.988281-63.078125-18.648438-3.050782-1.722656-4.046875-5.660156-2.214844-8.652343l5.558594-9.117188c20.03125 12.421875 66.269531 32.570313 127.066406 4.953125.003906 0 .484375 7.84375-4.308594 16.132813zm0 0" fill="#2081f6"/><path d="m272.433594 224.222656h-13.382813c-3.328125 0-6.351562-1.949218-7.71875-4.988281l-4.347656-9.636719c-2.527344-5.605468 1.570313-11.953125 7.71875-11.953125h17.730469c7.335937 0 13.289062 5.949219 13.289062 13.289063s-5.953125 13.289062-13.289062 13.289062zm0 0" fill="#fecaa8"/><path d="m256.121094 34.957031-.957032-13.34375c-.238281-3.324219 1.492188-6.476562 4.421876-8.058593l9.300781-5.027344c5.410156-2.921875 12.035156.710937 12.476562 6.847656l1.269531 17.679688c.523438 7.320312-4.984374 13.679687-12.304687 14.207031-7.320313.527343-13.679687-4.984375-14.207031-12.304688zm0 0" fill="#ffb38c"/><path d="m378.863281 84.664062c0 7.648438-2.886719 14.617188-7.640625 19.882813-5.429687 6.023437-13.296875 9.800781-22.046875 9.800781-16.394531 0-29.683593-13.285156-29.683593-29.683594 0-8.859374 3.878906-16.800781 10.019531-22.234374 5.238281-4.644532 12.125-7.449219 19.664062-7.449219 16.398438 0 29.6875 13.285156 29.6875 29.683593zm0 0" fill="#fecaa8"/><path d="m378.863281 84.664062c0 7.648438-2.886719 14.617188-7.640625 19.882813-3.316406-1.09375-6.367187-2.933594-8.945312-5.433594l-23.394532-22.707031c-4.132812-4.015625-7.304687-8.769531-9.371093-13.976562 5.238281-4.644532 12.125-7.449219 19.664062-7.449219 16.398438 0 29.6875 13.285156 29.6875 29.683593zm0 0" fill="#ffb38c"/><path d="m347.109375 67.933594 23.394531 22.703125c4.605469 4.472656 11.964844 4.363281 16.4375-.246094l8.082032-8.324219c6.554687-6.753906 6.394531-17.542968-.359376-24.097656l-39.902343-38.726562-8.25 8.5c-10.933594 11.265624-10.667969 29.261718.597656 40.191406zm0 0" fill="#ffdf49"/><path d="m231.234375 371.933594c44 0 85.429687-2.8125 116.652344-7.925782 47.957031-7.847656 54.105469-18.175781 54.105469-26.296874 0-8.121094-6.148438-18.445313-54.105469-26.296876-31.222657-5.109374-72.652344-7.925781-116.652344-7.925781s-85.425781 2.8125-116.648437 7.925781c-47.957032 7.851563-54.105469 18.175782-54.105469 26.296876 0 8.121093 6.148437 18.449218 54.105469 26.296874 31.222656 5.113282 72.648437 7.925782 116.648437 7.925782zm-108.222656-46.648438c29.671875-4.382812 68.105469-6.796875 108.222656-6.796875 40.121094 0 78.554687 2.414063 108.226563 6.796875 32.074218 4.734375 42.953124 10.070313 46.375 12.425782-3.421876 2.355468-14.300782 7.691406-46.375 12.429687-29.671876 4.382813-68.105469 6.792969-108.226563 6.792969-40.117187 0-78.550781-2.410156-108.222656-6.792969-32.074219-4.738281-42.953125-10.074219-46.375-12.429687 3.421875-2.355469 14.300781-7.691407 46.375-12.425782zm0 0"/><path d="m462.46875 337.710938c0-18.363282-23.992188-33.300782-71.316406-44.398438-42.804688-10.035156-99.59375-15.5625-159.917969-15.5625-64.839844 0-126.746094 6.578125-169.847656 18.046875-4.003907 1.066406-6.382813 5.175781-5.316407 9.179687 1.0625 4.003907 5.179688 6.382813 9.175782 5.316407 41.894531-11.148438 102.398437-17.542969 165.988281-17.542969 59.203125 0 114.78125 5.386719 156.492187 15.167969 47.160157 11.058593 59.742188 23.929687 59.742188 29.792969 0 5.863281-12.582031 18.738281-59.742188 29.796874-41.710937 9.78125-97.289062 15.167969-156.492187 15.167969-59.199219 0-114.777344-5.386719-156.492187-15.167969-47.15625-11.058593-59.742188-23.933593-59.742188-29.796874 0-4.730469 7.054688-10.890626 18.863281-16.480469 3.746094-1.769531 5.34375-6.242188 3.574219-9.984375-1.773438-3.746094-6.246094-5.34375-9.988281-3.574219-18.214844 8.617187-27.449219 18.726563-27.449219 30.039063 0 4.996093 1.792969 9.738281 5.332031 14.21875-3.539062 4.488281-5.332031 9.253906-5.332031 14.21875 0 9.824218 6.949219 18.742187 20.652344 26.53125v79.28125c0 9.457031 7.695312 17.152343 17.152344 17.152343 9.460937 0 17.15625-7.695312 17.15625-17.152343v-65.679688c39.472656 11.480469 96.472656 18.5625 158.929687 19.671875v68.894531c0 9.457032 7.699219 17.152344 17.15625 17.152344h.375c9.460937 0 17.15625-7.695312 17.15625-17.152344v-68.898437c21.339844-.382813 42.246094-1.460938 62.226563-3.226563 4.128906-.363281 7.175781-4.003906 6.8125-8.128906-.363282-4.128906-4.019532-7.164062-8.132813-6.8125-19.546875 1.726562-40.007813 2.785156-60.90625 3.164062v-13.425781c53.800781-.957031 103.898437-6.34375 142.574219-15.410156 5.804687-1.363281 11.253906-2.78125 16.355468-4.257813v12.761719c-17.316406 5.355469-39.382812 9.964844-64.207031 13.378907-4.105469.566406-6.972656 4.351562-6.40625 8.453124.515625 3.757813 3.730469 6.480469 7.417969 6.480469.34375 0 .6875-.023437 1.035156-.074219 23.925782-3.292968 44.773438-7.515624 62.160156-12.578124v65.6875c0 9.460937 7.695313 17.15625 17.15625 17.15625 9.457032 0 17.152344-7.695313 17.152344-17.15625v-79.28125c13.707032-7.792969 20.652344-16.707032 20.652344-26.53125 0-4.964844-1.792969-9.730469-5.332031-14.21875 3.542969-4.480469 5.332031-9.222657 5.332031-14.21875zm-447.46875 28.441406c0-1.472656.695312-2.960938 1.660156-4.328125 1.261719.824219 2.589844 1.632812 3.992188 2.433593v10.378907c-3.65625-3.03125-5.652344-5.957031-5.652344-8.484375zm22.808594 107.964844c-1.1875 0-2.15625-.96875-2.15625-2.15625v-100.628907c1.402344.554688 2.828125 1.105469 4.3125 1.648438v98.980469c-.003906 1.1875-.96875 2.15625-2.15625 2.15625zm17.152344-83.492188v-12.773438c5.105468 1.476563 10.554687 2.898438 16.359374 4.257813 38.671876 9.070313 88.769532 14.457031 142.570313 15.410156v13.433594c-63.390625-1.144531-120.746094-8.480469-158.929687-20.328125zm178.617187 104.222656c0 1.1875-.96875 2.15625-2.15625 2.15625h-.375c-1.1875 0-2.152344-.96875-2.152344-2.15625v-97.179687c1.558594.003906 3.121094.003906 4.683594 0zm191.085937-20.730468c-1.1875 0-2.15625-.96875-2.15625-2.15625v-98.980469c1.480469-.542969 2.910157-1.09375 4.3125-1.648438v100.628907c0 1.1875-.96875 2.15625-2.15625 2.15625zm17.15625-99.480469v-10.378907c1.402344-.800781 2.726563-1.609374 3.988282-2.433593.960937 1.359375 1.664062 2.851562 1.664062 4.324219-.003906 2.53125-1.996094 5.457031-5.652344 8.488281zm0 0"/><path d="m131.574219 434.476562c-4.09375-.605468-7.90625 2.230469-8.507813 6.332032l-1.605468 10.894531c-.601563 4.097656 2.230468 7.90625 6.328124 8.511719.371094.054687.738282.082031 1.101563.082031 3.660156 0 6.863281-2.683594 7.410156-6.410156l1.605469-10.898438c.601562-4.097656-2.234375-7.90625-6.332031-8.511719zm0 0"/><path d="m164.214844 438.25c-1.523438-3.851562-5.886719-5.734375-9.734375-4.207031-3.851563 1.527343-5.734375 5.886719-4.207031 9.734375l4.058593 10.238281c1.167969 2.945313 3.988281 4.738281 6.976563 4.738281.917968 0 1.851562-.171875 2.761718-.53125 3.851563-1.523437 5.734376-5.882812 4.207032-9.734375zm0 0"/><path d="m109.769531 427.464844c-3.246093-2.570313-7.960937-2.023438-10.535156 1.226562l-6.835937 8.632813c-2.570313 3.246093-2.023438 7.964843 1.222656 10.535156 1.378906 1.089844 3.023437 1.621094 4.652344 1.621094 2.210937 0 4.402343-.976563 5.882812-2.84375l6.839844-8.636719c2.570312-3.246094 2.023437-7.964844-1.226563-10.535156zm0 0"/><path d="m329.363281 440.804688c-.605469-4.097657-4.410156-6.9375-8.511719-6.328126-4.097656.605469-6.933593 4.414063-6.328124 8.511719l1.605468 10.898438c.546875 3.726562 3.75 6.410156 7.410156 6.410156.359376 0 .730469-.027344 1.101563-.082031 4.097656-.605469 6.929687-4.414063 6.328125-8.511719zm0 0"/><path d="m297.949219 434.042969c-3.851563-1.527344-8.210938.355469-9.734375 4.207031l-4.0625 10.238281c-1.527344 3.851563.355468 8.210938 4.207031 9.734375.90625.359375 1.84375.53125 2.765625.53125 2.980469 0 5.804688-1.792968 6.972656-4.738281l4.058594-10.238281c1.527344-3.847656-.355469-8.207032-4.207031-9.734375zm0 0"/><path d="m353.195312 428.691406c-2.570312-3.25-7.285156-3.796875-10.535156-1.226562-3.25 2.570312-3.796875 7.285156-1.226562 10.535156l6.835937 8.636719c1.480469 1.867187 3.671875 2.84375 5.886719 2.84375 1.628906 0 3.269531-.53125 4.648438-1.621094 3.25-2.570313 3.796874-7.285156 1.226562-10.535156zm0 0"/><path d="m66.859375 205.648438h44.609375c8.703125 0 15.78125-7.078126 15.78125-15.78125v-14.808594c0-.382813-.035156-.753906-.089844-1.117188 11.726563-9.253906 25.269532-15.507812 40.472656-18.710937v68.992187c0 4.144532 3.359376 7.5 7.5 7.5 4.144532 0 7.5-3.355468 7.5-7.5v-71.121094c2.238282-.175781 4.5-.3125 6.800782-.367187 5.113281-.128906 10.300781.0625 15.492187.539063.066407.367187.132813.730468.226563 1.09375.945312 3.625 3.257812 6.625 6.515625 8.457031 16.5 9.273437 33.449219 15.34375 50.378906 18.042969.398437.0625.796875.09375 1.1875.09375 3.621094 0 6.8125-2.628907 7.398437-6.320313.652344-4.089844-2.136718-7.9375-6.226562-8.585937-14.765625-2.355469-29.625-7.613282-44.191406-15.640626l26.152344-42.824218c22.097656 11.625 43.3125 12.863281 63.078124 3.675781 3.1875-1.480469 6.3125-3.222656 9.351563-5.191406 6.742187 9.535156 17.839844 15.777343 30.378906 15.777343 3.628907 0 7.171875-.535156 10.539063-1.535156l3.679687 2.867188c1.535157 1.195312 2.5 2.890625 2.746094 4.804687-.175781 2.839844-1.3125 17.859375-6.519531 31.675781-.457032-.085937-.933594-.136718-1.417969-.136718-4.140625 0-7.5 3.355468-7.5 7.5v9.429687c-9.957031 14.210938-27.332031 28.886719-57.566406 36.167969.042969-.558594.085937-1.121094.085937-1.691406 0-2.550782-.484375-4.984375-1.328125-7.242188 27.246094-6.71875 46.246094-20.445312 56.523438-40.867187.203125-.40625.359375-.824219.484375-1.246094 4.742187-9.269531 4.398437-17.59375 4.335937-18.566406-.253906-4.132813-3.832031-7.320313-7.945312-7.0625-4.136719.253906-7.285157 3.773437-7.03125 7.910156.003906.054687.15625 4.8125-2.382813 10.199219-1.773437.929687-3.546875 1.828125-5.308594 2.648437-11.050781 5.136719-22.59375 8.476563-34.308593 9.933594-4.113281.511719-7.03125 4.257813-6.519531 8.367187.511718 4.109376 4.25 7.03125 8.367187 6.519532 5.503906-.683594 10.96875-1.734375 16.371094-3.140625-8.46875 5.390625-18.878907 9.355469-31.175781 11.863281-1.296876.261719-2.550782.664062-3.757813 1.175781-2.222656-.8125-4.613281-1.28125-7.117187-1.28125h-17.726563c-5.445313 0-10.460937 2.730469-13.414063 7.304688-2.953124 4.574219-3.382812 10.269531-1.144531 15.230469l4.347657 9.640624c2.578124 5.710938 8.292968 9.402344 14.558593 9.402344h13.378907c4.023437 0 7.769531-1.167968 10.953124-3.152344 1.167969.214844 2.351563.328126 3.546876.328126 1.289062 0 2.589843-.132813 3.871093-.390626 27.796875-5.613281 46.847657-16.722656 59.902344-29.136718v42.523437c0 4.144531 3.355469 7.5 7.5 7.5 4.140625 0 7.5-3.355469 7.5-7.5v-60.921875c2.3125-3.714844 4.234375-7.367187 5.8125-10.851562 8.585937-18.929688 9.597656-41.050782 9.632813-41.984375.015624-.289063.011718-.578125-.011719-.867188-.425781-5.703125-3.046875-11.019531-7.25-14.835937 3.574219-3.175782 6.550781-7.046875 8.707031-11.453125 3.582031-.761719 6.988281-2.546875 9.726562-5.367188l8.082032-8.324219c4.5625-4.703124 7.023437-10.902343 6.929687-17.457031-.097656-6.558593-2.746093-12.683593-7.449219-17.246093l-39.902343-38.726563c-2.972657-2.886719-7.71875-2.8125-10.601563.15625l-8.25 8.5c-6.683594 6.886719-10.285156 15.960937-10.144531 25.554687.023437 1.351563.125 2.683594.289063 4.003907-7.984376 4.40625-14.042969 11.613281-17.09375 20.074219-10.332032-9.445313-18.792969-19.878907-25.246094-31.140626.953125-2.644531 1.390625-5.515624 1.175781-8.492187l-1.269531-17.679687c-.390625-5.433594-3.472656-10.238282-8.246094-12.859376-4.773438-2.617187-10.480469-2.636718-15.269531-.046874l-9.304688 5.023437c-5.511719 2.980469-8.785156 8.941406-8.335937 15.195313l.957031 13.34375c.191406 2.679687.890625 5.199218 1.988281 7.484374-.835937 4.339844-.1875 8.796876 1.90625 12.761719 9 17.035157 21.179688 32.515625 36.28125 46.164063-11.480468 1.558594-23.5-1.113282-36.386718-8.082032-1.269532-.6875-2.605469-1.144531-3.953126-1.402343l-38.25-45.371094c-5.3125-6.304687-13.886718-8.976563-21.839843-6.820313l-72.125 19.589844c-5.484375 1.488282-10.058594 5.023438-12.882813 9.953125-1.058594 1.84375-1.820312 3.800781-2.285156 5.816407-12.421875 2.269531-23.957031 7.761718-33.589844 16.058593-5.308594 4.570313-7.164062 11.765625-4.726562 18.332031 2.4375 6.570313 8.539062 10.8125 15.542968 10.8125h44.617188c8.699219 0 15.78125-7.078124 15.78125-15.78125v-7.203124l47.726562-12.960938 21.933594 26.011719c-5.746094-.507813-12.085937-.800781-18.886718-.679688-36.933594.671875-69.960938 13.148438-95.511719 36.082031-4.375 3.929688-6.738281 9.277344-7.023438 14.730469-11.40625 2.539063-21.992187 7.824219-30.917969 15.511719-5.308593 4.574219-7.164062 11.769531-4.726562 18.335938 2.4375 6.570312 8.539062 10.8125 15.546875 10.8125zm192.191406 11.074218c-.378906 0-.726562-.222656-.882812-.570312l-4.347657-9.640625c-.054687-.117188-.21875-.480469.070313-.921875.285156-.445313.683594-.445313.8125-.445313h17.726563c3.195312 0 5.789062 2.597657 5.789062 5.789063s-2.59375 5.789062-5.789062 5.789062zm92.839844-183.757812 3.027344-3.117188 34.519531 33.503906c1.828125 1.777344 2.859375 4.15625 2.898438 6.703126.035156 2.550781-.921876 4.960937-2.695313 6.789062l-8.082031 8.324219c-1.582032 1.632812-4.199219 1.671875-5.832032.089843l-23.394531-22.707031c-4.011719-3.890625-6.265625-9.113281-6.347656-14.699219-.082031-5.589843 2.015625-10.875 5.90625-14.886718zm-15.484375 33.578125c1.527344 2.441406 3.359375 4.714843 5.480469 6.773437l23.394531 22.707032c.601562.582031 1.238281 1.101562 1.894531 1.589843-4.101562 5.683594-10.757812 9.238281-18 9.238281-12.234375 0-22.1875-9.953124-22.1875-22.1875 0-7.28125 3.636719-14.023437 9.417969-18.121093zm-73.257812-46.390625 9.304687-5.023438c.070313-.039062.234375-.125.457031-.125.136719 0 .296875.03125.472656.128906.460938.253907.488282.648438.5.78125l1.269532 17.679688c.230468 3.183594-2.175782 5.960938-5.359375 6.1875-1.539063.105469-3.035157-.386719-4.203125-1.398438-1.171875-1.011718-1.875-2.417968-1.984375-3.960937l-.960938-13.34375c-.027343-.382813.171875-.742187.503907-.925781zm6.050781 34.636718c.054687 0 .109375.007813.160156.007813.5 0 1-.019531 1.503906-.054687 2.71875-.195313 5.269531-.921876 7.578125-2.046876 8.652344 13.890626 20.058594 26.53125 33.988282 37.683594.085937.570313.1875 1.136719.300781 1.699219-2.351563 1.652344-4.765625 3.121094-7.21875 4.402344-14.976563-12.238281-27.15625-26.230469-36.3125-41.691407zm-146.261719 51.003907h-44.613281c-.273438 0-1.101563 0-1.484375-1.03125-.382813-1.03125.246094-1.570313.453125-1.746094 7.433593-6.402344 16.296875-10.691406 25.847656-12.550781 1.863281 3.453125 4.632813 6.34375 8.125 8.339844 3.828125 2.195312 8.144531 3.109374 12.453125 2.71875v3.488281c0 .429687-.351562.78125-.78125.78125zm64.191406-36.679688-63.648437 17.285157c-1.613281.441406-3.308594.226562-4.761719-.609376-1.453125-.832031-2.496094-2.183593-2.933594-3.796874-.441406-1.617188-.222656-3.308594.609375-4.761719s2.179688-2.496094 3.796875-2.9375l72.128906-19.585938c2.339844-.636719 4.871094.152344 6.4375 2.011719l35.433594 42.027344-6.890625 11.285156-32.46875-38.511719c-1.882812-2.230469-4.886719-3.167969-7.703125-2.40625zm-83.128906 88.308594c22.828125-20.492187 52.484375-31.640625 85.761719-32.246094 10.460937-.1875 19.746093.679688 27.1875 1.804688l-7.148438 11.707031c-6.933593-.796875-13.894531-1.117188-20.738281-.949219-2.175781.054688-4.324219.167969-6.453125.3125-.242187-3.921875-3.492187-7.027343-7.472656-7.027343-4.144531 0-7.5 3.355468-7.5 7.5v1.390624c-21.164063 3.882813-39.6875 12.867188-55.257813 26.839844-1.152344 1.035156-2.636718 1.605469-4.1875 1.605469-1.804687 0-3.464844-.738281-4.667968-2.078125-2.3125-2.574219-2.097657-6.550781.476562-8.859375zm-38.171875 30.449219c7.398437-6.371094 16.238281-10.65625 25.753906-12.53125.257813.324218.5.652344.777344.960937 4.03125 4.488281 9.800781 7.0625 15.828125 7.0625h.007812c1.371094 0 2.726563-.140625 4.058594-.398437v6.902344c0 .433593-.351562.785156-.78125.785156h-44.613281c-.273437 0-1.101563 0-1.484375-1.03125-.382812-1.035156.246094-1.574219.453125-1.75zm0 0"/><path d="m192.410156 181.375v16.773438c0 4.144531 3.359375 7.5 7.5 7.5 4.144532 0 7.5-3.355469 7.5-7.5v-16.773438c0-4.144531-3.355468-7.5-7.5-7.5-4.140625 0-7.5 3.355469-7.5 7.5zm0 0"/><path d="m371.363281 195.453125v18.019531c0 4.140625 3.355469 7.5 7.5 7.5s7.5-3.359375 7.5-7.5v-18.019531c0-4.144531-3.355469-7.5-7.5-7.5s-7.5 3.355469-7.5 7.5zm0 0"/><path d="m81.253906 221.394531v11.644531c0 4.144532 3.359375 7.5 7.5 7.5 4.144532 0 7.5-3.355468 7.5-7.5v-11.644531c0-4.140625-3.355468-7.5-7.5-7.5-4.140625 0-7.5 3.359375-7.5 7.5zm0 0"/><path d="m102.621094 221.394531v30.527344c0 4.144531 3.355468 7.5 7.5 7.5 4.140625 0 7.5-3.355469 7.5-7.5v-30.527344c0-4.140625-3.359375-7.5-7.5-7.5-4.144532 0-7.5 3.359375-7.5 7.5zm0 0"/></svg>