<svg height="479pt" viewBox="0 0 479.99103 479" width="479pt" xmlns="http://www.w3.org/2000/svg"><path d="m248 150.558594h200v280h-200zm0 0" fill="#bdfdff"/><path d="m320 330.558594c.015625 5.308594-2.085938 10.40625-5.839844 14.160156-3.753906 3.757812-8.851562 5.859375-14.160156 5.839844h-232c-11.046875 0-20-8.953125-20-20 0-11.042969 8.953125-20 20-20h232c11.046875 0 20 8.957031 20 20zm0 0" fill="#ffd422"/><path d="m320 290.558594c.015625 5.308594-2.085938 10.40625-5.839844 14.160156-3.753906 3.757812-8.851562 5.859375-14.160156 5.839844h-232c-11.046875 0-20-8.953125-20-20 0-11.042969 8.953125-20 20-20h232c11.046875 0 20 8.957031 20 20zm0 0" fill="#ee8700"/><path d="m320 370.558594c.015625 5.308594-2.085938 10.40625-5.839844 14.160156-3.753906 3.757812-8.851562 5.859375-14.160156 5.839844h-232c-11.046875 0-20-8.953125-20-20 0-11.042969 8.953125-20 20-20h232c11.046875 0 20 8.957031 20 20zm0 0" fill="#ff9811"/><path d="m248 94.558594h200v56h-200zm0 0" fill="#57a4ff"/><path d="m472 450.558594c.015625 5.308594-2.085938 10.40625-5.839844 14.160156-3.753906 3.757812-8.851562 5.859375-14.160156 5.839844h-424c-11.046875 0-20-8.953125-20-20 0-11.042969 8.953125-20 20-20h424c11.046875 0 20 8.957031 20 20zm0 0" fill="#787680"/><path d="m336 390.558594v8c0 17.675781-14.328125 32-32 32h-240c-17.671875 0-32-14.324219-32-32v-8zm0 0" fill="#a78966"/><path d="m208 206.558594c0 13.253906-10.746094 24-24 24s-24-10.746094-24-24 10.746094-24 24-24 24 10.746094 24 24zm0 0" fill="#ff5023"/><path d="m280 250.558594c.015625 5.308594-2.085938 10.40625-5.839844 14.160156-3.753906 3.757812-8.851562 5.859375-14.160156 5.839844h-12v80c0 13.253906-10.746094 24-24 24s-24-10.746094-24-24v-80h-32v40c-.066406 8.808594-7.191406 15.9375-16 16-8.824219-.027344-15.972656-7.171875-16-16v-40h-28c-11.046875 0-20-8.953125-20-20 0-11.042969 8.953125-20 20-20h152c11.046875 0 20 8.957031 20 20zm0 0" fill="#ffbcab"/><path d="m456 422.96875v-328.410156c0-4.417969-3.582031-8-8-8h-56v-28.320313l53.199219-45.597656-10.398438-12.144531-56 48c-1.773437 1.515625-2.796875 3.730468-2.800781 6.0625v32h-128c-4.417969 0-8 3.582031-8 8v128h-28.449219c4.976563-8.371094 5.804688-18.574219 2.253907-27.640625-3.550782-9.070313-11.089844-15.992188-20.429688-18.757813 2.539062-5.816406 8.277344-9.585937 14.625-9.601562h8v-16h-8c-14.902344.027344-27.8125 10.339844-31.136719 24.863281-14.527343 3.324219-24.835937 16.234375-24.863281 31.136719.03125 5.636718 1.570312 11.15625 4.449219 16h-48.449219c-15.464844 0-28 12.535156-28 28 .023438 4.160156.984375 8.261718 2.808594 12h-14.808594c-11.386719-.015625-21.644531 6.875-25.9375 17.421875-4.289062 10.542969-1.757812 22.640625 6.402344 30.578125-5.410156 5.25-8.464844 12.464844-8.464844 20 0 7.539062 3.054688 14.753906 8.464844 20-8.640625 8.304687-10.925782 21.238281-5.65625 32h-10.808594c-4.417969 0-8 3.582031-8 8v8c.03125 8.683594 2.914062 17.117187 8.207031 24h-4.207031c-15.464844 0-28 12.535156-28 28s12.535156 28 28 28h424c14.671875.03125 26.867188-11.296875 27.917969-25.929688 1.054687-14.632812-9.394531-27.589844-23.917969-29.660156zm-16-320.410156v40h-48v-40zm-184 0h120v40h-120zm0 56h120v192h16v-192h48v264h-104.207031c5.292969-6.882813 8.175781-15.316406 8.207031-24v-8c0-4.417969-3.582031-8-8-8h-10.808594c5.269532-10.761719 2.984375-23.695313-5.65625-32 5.410156-5.246094 8.464844-12.460938 8.464844-20 0-7.535156-3.054688-14.75-8.464844-20 8.160156-7.9375 10.691406-20.035156 6.402344-30.578125-4.292969-10.546875-14.550781-17.4375-25.9375-17.421875h-14.808594c1.824219-3.738282 2.785156-7.839844 2.808594-12 0-15.464844-12.535156-28-28-28h-4zm44 120c6.628906 0 12 5.375 12 12 0 6.628906-5.371094 12-12 12h-44v-24zm0 40c6.628906 0 12 5.375 12 12 0 6.628906-5.371094 12-12 12h-44v-24zm-132-112c0-8.835938 7.164062-16 16-16s16 7.164062 16 16c0 8.835937-7.164062 16-16 16s-16-7.164063-16-16zm-72 44c0-6.625 5.371094-12 12-12h152c6.628906 0 12 5.375 12 12 0 6.628906-5.371094 12-12 12h-12c-4.417969 0-8 3.582031-8 8v72c0 8.835937-7.164062 16-16 16s-16-7.164063-16-16v-72c0-4.417969-3.582031-8-8-8h-32c-4.417969 0-8 3.582031-8 8v40c0 4.417968-3.582031 8-8 8s-8-3.582032-8-8v-40c0-4.417969-3.582031-8-8-8h-28c-6.628906 0-12-5.371094-12-12zm96 52h-16v-24h16zm-136-12c0-6.625 5.371094-12 12-12h60v24h-60c-6.628906 0-12-5.371094-12-12zm0 40c0-6.625 5.371094-12 12-12h61.472656c3.339844 9.585937 12.378906 16.007812 22.527344 16.007812s19.1875-6.421875 22.527344-16.007812h17.472656v24h-124c-6.628906 0-12-5.371094-12-12zm0 40c0-6.625 5.371094-12 12-12h128.449219c5.644531 9.894531 16.160156 16.003906 27.550781 16.003906s21.90625-6.109375 27.550781-16.003906h48.449219c6.628906 0 12 5.375 12 12 0 6.628906-5.371094 12-12 12h-232c-6.628906 0-12-5.371094-12-12zm-16 28h288c0 13.253906-10.746094 24-24 24h-240c-13.253906 0-24-10.746094-24-24zm412 64h-424c-6.628906 0-12-5.371094-12-12 0-6.625 5.371094-12 12-12h424c6.628906 0 12 5.375 12 12 0 6.628906-5.371094 12-12 12zm0 0" fill="#231f20"/></svg>