<svg height="512pt" viewBox="0 0 512 512" width="512pt" xmlns="http://www.w3.org/2000/svg"><path d="m304.621094 322.898438v127.808593h-198.3125v-127.808593c0-32.75 22.339844-60.292969 52.621094-68.203126 5.710937-1.5 11.699218-2.289062 17.878906-2.289062h57.3125c7.480468 0 14.6875 1.160156 21.449218 3.320312 28.449219 9.070313 49.050782 35.71875 49.050782 67.171876zm0 0" fill="#d0f4ef"/><path d="m304.621094 322.898438v127.808593h-32.710938v-127.808593c0-31.453126-20.601562-58.101563-49.050781-67.171876-6.757813-2.160156-13.96875-3.320312-21.449219-3.320312h32.710938c7.480468 0 14.6875 1.160156 21.449218 3.320312 28.449219 9.070313 49.050782 35.71875 49.050782 67.171876zm0 0" fill="#abe0da"/><path d="m255.570312 255.726562c-13.050781 10.53125-29.648437 16.839844-47.691406 16.839844-18.617187 0-35.707031-6.71875-48.949218-17.871094 5.710937-1.5 11.699218-2.289062 17.878906-2.289062h57.3125c7.480468 0 14.6875 1.160156 21.449218 3.320312zm0 0" fill="#abe0da"/><path d="m271.992188 196.457031c0 35.410157-28.703126 64.113281-64.113282 64.113281s-64.113281-28.703124-64.113281-64.113281c0-35.410156 28.703125-64.113281 64.113281-64.113281s64.113282 28.703125 64.113282 64.113281zm0 0" fill="#fecaa8"/><path d="m271.910156 193.179688c-5.582031 3.648437-12.25 5.769531-19.402344 5.769531h-62.402343c-17.125 0-32.78125-6.378907-44.710938-16.914063.960938-4.222656 2.355469-8.292968 4.113281-12.152344 10.105469-22.15625 32.449219-37.535156 58.363282-37.535156 34.308594 0 62.324218 26.945313 64.039062 60.832032zm0 0" fill="#ffb38c"/><path d="m274.761719 141.214844v22.210937c0 12.296875-9.960938 22.257813-22.253907 22.257813h-62.402343c-30.0625 0-54.417969-24.367188-54.417969-54.417969v-14.582031c0-4.46875 3.617188-8.09375 8.09375-8.09375h98.355469c4.34375 0 8.5.851562 12.292969 2.398437 11.929687 4.851563 20.332031 16.550781 20.332031 30.226563zm0 0" fill="#ffdf49"/><path d="m254.429688 110.988281v7.453125c0 11.917969-9.695313 21.613282-21.613282 21.613282h-55.433594c-11.921874 0-21.617187-9.695313-21.617187-21.613282v-9.851562h86.371094c4.34375 0 8.503906.851562 12.292969 2.398437zm0 0" fill="#ffbd47"/><path d="m232.820312 126.789062h-55.4375c-4.609374 0-8.347656-3.734374-8.347656-8.34375v-74.121093h72.128906v74.121093c0 4.609376-3.734374 8.34375-8.34375 8.34375zm0 0" fill="#abe0da"/><path d="m246.257812 7.5c-8.417968 0-15.871093 4.054688-20.578124 10.296875-4.703126-6.242187-12.160157-10.296875-20.578126-10.296875-8.421874 0-15.875 4.054688-20.578124 10.296875-4.707032-6.242187-12.160157-10.296875-20.582032-10.296875-14.238281 0-25.78125 11.542969-25.78125 25.78125s11.542969 25.78125 25.78125 25.78125c8.421875 0 15.875-4.054688 20.582032-10.296875 4.703124 6.242187 12.15625 10.296875 20.578124 10.296875 8.417969 0 15.875-4.054688 20.578126-10.296875 4.707031 6.242187 12.160156 10.296875 20.578124 10.296875 14.238282 0 25.78125-11.542969 25.78125-25.78125s-11.542968-25.78125-25.78125-25.78125zm0 0" fill="#d0f4ef"/><path d="m490.679688 359.792969h-31.464844c-7.628906 0-13.820313-6.1875-13.820313-13.820313 0-7.632812 6.191407-13.820312 13.820313-13.820312h31.464844c7.632812 0 13.820312 6.1875 13.820312 13.820312 0 7.632813-6.1875 13.820313-13.820312 13.820313zm0 0" fill="#95c6df"/><path d="m290.085938 359.792969h-31.464844c-7.632813 0-13.820313-6.1875-13.820313-13.820313 0-7.632812 6.1875-13.820312 13.820313-13.820312h31.464844c7.632812 0 13.820312 6.1875 13.820312 13.820312 0 7.632813-6.1875 13.820313-13.820312 13.820313zm0 0" fill="#95c6df"/><path d="m463.371094 327.875v125.226562c0 17.089844-13.855469 30.941407-30.945313 30.941407h-115.554687c-17.089844 0-30.941406-13.851563-30.941406-30.941407v-125.226562zm0 0" fill="#4c78a0"/><path d="m463.371094 327.871094v125.230468c0 17.09375-13.851563 30.949219-30.945313 30.949219h-30.371093c17.082031 0 30.945312-13.855469 30.945312-30.949219v-125.230468zm0 0" fill="#336686"/><path d="m395.558594 268.089844c-6.800782-3.464844-9.507813-11.785156-6.046875-18.585938l6.882812-13.523437c3.464844-6.800781 11.785157-9.507813 18.585938-6.046875 6.800781 3.464844 9.507812 11.785156 6.046875 18.585937l-6.882813 13.523438c-3.464843 6.800781-11.785156 9.507812-18.585937 6.046875zm0 0" fill="#d0f4ef"/><path d="m470.511719 332.152344-170.855469-86.984375 6.742188-13.242188c6.382812-12.53125 21.710937-17.519531 34.242187-11.140625l125.476563 63.882813c12.53125 6.378906 17.515624 21.710937 11.136718 34.242187zm0 0" fill="#4c78a0"/><path d="m84.378906 334.355469h29.082032v50.664062h-29.082032zm0 0" fill="#d6bcab"/><path d="m78.019531 351.394531h41.800781v-15.234375c0-5.136718-4.164062-9.300781-9.300781-9.300781h-23.199219c-5.136718 0-9.300781 4.164063-9.300781 9.300781zm0 0" fill="#9ac6c3"/><path d="m129.8125 392.265625.003906 71.097656c0 6.105469-4.949218 11.058594-11.054687 11.058594l-19.179688.003906-20.5-.003906c-6.105469 0-11.054687-4.949219-11.054687-11.054687l-.003906-71.097657c0-6.875 5.570312-12.445312 12.4375-12.445312h36.917968c6.867188.003906 12.433594 5.566406 12.433594 12.441406zm0 0" fill="#fff0cf"/><path d="m23.859375 334.355469h29.078125v50.664062h-29.078125zm0 0" fill="#a46243"/><path d="m17.496094 351.394531h41.804687v-15.234375c0-5.136718-4.164062-9.300781-9.300781-9.300781h-23.203125c-5.136719 0-9.300781 4.164063-9.300781 9.300781zm0 0" fill="#9ac6c3"/><path d="m69.292969 392.265625.003906 71.097656c0 6.105469-4.949219 11.058594-11.054687 11.058594l-19.179688.003906-20.503906-.003906c-6.105469 0-11.054688-4.949219-11.054688-11.054687v-71.097657c-.003906-6.875 5.570313-12.445312 12.4375-12.445312h36.917969c6.863281.003906 12.433594 5.566406 12.433594 12.441406zm0 0" fill="#c87c5b"/><path d="m499.65625 463.433594c0 22.621094-18.335938 40.957031-40.957031 40.957031-22.617188 0-40.957031-18.335937-40.957031-40.957031 0-22.617188 18.339843-30.839844 40.957031-30.839844 22.621093 0 40.957031 8.222656 40.957031 30.839844zm0 0" fill="#e6f072"/><path d="m499.65625 463.433594c0 22.625-18.332031 40.957031-40.957031 40.957031-4.394531 0-8.617188-.691406-12.582031-1.96875 16.472656-5.300781 28.394531-20.753906 28.394531-38.988281 0-18.222656-11.921875-27.101563-28.394531-29.859375 3.964843-.667969 8.1875-.980469 12.582031-.980469 22.625 0 40.957031 8.222656 40.957031 30.839844zm0 0" fill="#a2d961"/><path d="m272.644531 453.78125 49.972657-8.785156c7.324218-1.289063 12.214843-8.269532 10.929687-15.589844-1.289063-7.324219-8.269531-12.214844-15.589844-10.929688l-49.972656 8.789063zm0 0" fill="#a2d961"/><path d="m296.746094 425.414062 4.917968 27.960938c2.898438 16.492188-9.792968 31.605469-26.539062 31.601562l-142.910156-.027343c-18.121094-.003907-22.554688-25.230469-5.523438-31.414063l134.328125-48.777344c15.742188-5.714843 32.828125 4.164063 35.726563 20.65625zm0 0" fill="#ff9921"/><path d="m298.183594 433.625 3.472656 19.757812c2.902344 16.484376-9.789062 31.597657-26.535156 31.59375l-142.898438-.035156c-13.566406.003906-19.46875-14.125-14.421875-23.824218 2.699219 2.484374 6.390625 4.085937 10.949219 4.082031l142.898438.03125c16.746093.003906 29.4375-15.105469 26.535156-31.605469zm0 0" fill="#f47a00"/><path d="m221.398438 320.195312h-.136719c-.007813 0-.019531 0-.027344 0-4.128906 0-7.484375 3.339844-7.5 7.472657-.015625 4.144531 3.332031 7.511719 7.476563 7.527343h.136718.023438c4.132812 0 7.484375-3.339843 7.5-7.472656.015625-4.144531-3.332032-7.511718-7.472656-7.527344zm0 0"/><path d="m221.34375 363.082031c-4.117188-.054687-7.523438 3.304688-7.554688 7.445313-.027343 4.144531 3.304688 7.527344 7.445313 7.554687l.136719.003907h.058594c4.117187 0 7.46875-3.324219 7.496093-7.449219.03125-4.140625-3.304687-7.523438-7.445312-7.550781zm0 0"/><path d="m470.871094 425.921875v-58.628906h19.808594c11.757812 0 21.320312-9.5625 21.320312-21.320313 0-11.753906-9.5625-21.320312-21.320312-21.320312h-7.933594l1.191406-2.339844c3.996094-7.847656 4.695312-16.777344 1.972656-25.152344-2.722656-8.371094-8.542968-15.179687-16.390625-19.175781l-43.738281-22.265625 1.929688-3.792969c2.585937-5.074219 3.035156-10.855469 1.273437-16.269531s-5.523437-9.820312-10.601563-12.402344c-5.074218-2.582031-10.851562-3.035156-16.265624-1.277344-5.417969 1.761719-9.820313 5.527344-12.40625 10.601563l-1.929688 3.792969-43.738281-22.265625c-7.847657-3.996094-16.777344-4.695313-25.148438-1.972657-8.371093 2.726563-15.183593 8.546876-19.175781 16.390626l-6.746094 13.246093c-.902344 1.769531-1.0625 3.828125-.445312 5.722657.613281 1.890624 1.953125 3.460937 3.726562 4.363281l134.59375 68.523437h-62.699218c-4.144532 0-7.5 3.355469-7.5 7.5 0 4.140625 3.355468 7.5 7.5 7.5h87.722656v89.761719c-29.042969.835937-45.628906 14.6875-45.628906 38.296875 0 4.542969.644531 8.9375 1.816406 13.109375h-95.1875c-3.902344 0-7.699219-.992187-11.085938-2.8125 2.960938-5.765625 4.230469-12.269531 3.632813-18.800781l14.5-2.546875c11.382812-2.003907 19.015625-12.894531 17.015625-24.277344-.96875-5.511719-4.027344-10.320313-8.613282-13.535156-4.585937-3.214844-10.144531-4.449219-15.664062-3.480469l-16.035156 2.820312c-1.84375-3.472656-4.269532-6.609374-7.191406-9.269531v-69.265625h40.542968c4.140625 0 7.5-3.359375 7.5-7.5 0-4.144531-3.359375-7.5-7.5-7.5h-21.910156c-.601562-18.800781-7.894531-36.640625-20.71875-50.480468-9.421875-10.167969-21.222656-17.523438-34.207031-21.527344 13.753906-13.054688 22.355469-31.492188 22.355469-51.910156 0-5.710938-.675782-11.382813-2.007813-16.886719 3.019531-4.652344 4.78125-10.195313 4.78125-16.144531v-22.214844c0-19.902344-14.566406-36.457032-33.597656-39.585938v-35.160156c17.230469-1.238281 30.875-15.644531 30.875-33.1875 0-18.351562-14.933594-33.28125-33.28125-33.28125-7.613281 0-14.785157 2.535156-20.582031 7.132812-5.792969-4.597656-12.964844-7.132812-20.578126-7.132812-7.613281 0-14.785156 2.535156-20.578124 7.132812-5.792969-4.597656-12.96875-7.132812-20.578126-7.132812-18.351562 0-33.285156 14.929688-33.285156 33.28125 0 17.542969 13.648438 31.949219 30.878906 33.1875v34.621094h-17.761718c-8.59375 0-15.589844 6.992187-15.589844 15.589844v14.585937c0 14.453125 4.992188 27.75 13.320312 38.296875-3.472656 8.535156-5.242187 17.566406-5.242187 26.894531 0 19.871094 8.140625 37.871094 21.253906 50.859375-7.46875 1.902344-14.640625 4.90625-21.257812 8.941406-3.539063 2.15625-4.65625 6.769532-2.5 10.308594 1.410156 2.316406 3.878906 3.59375 6.410156 3.59375 1.332031 0 2.679687-.351562 3.894531-1.09375 9.253906-5.640625 19.855469-8.78125 30.726563-9.128906 9.902343 5.183594 21.152343 8.132812 33.085937 8.132812 11.710938 0 22.757813-2.84375 32.527344-7.84375 31.054688 3.082032 55.394531 29.050782 56.65625 60.144532h-11.132812c-2.988282 0-5.558594 1.753906-6.765626 4.28125h-19.324218v-10.339844c0-4.144531-3.359375-7.5-7.5-7.5-4.144532 0-7.5 3.355469-7.5 7.5v15.421875c-4.605469 3.914063-7.539063 9.738281-7.539063 16.238281s2.933594 12.324219 7.539063 16.238282v40.445312l-16.265625 5.90625c-1.003907-2.949219-3.78125-5.074219-7.070313-5.085938h-.136718c-.007813 0-.015626 0-.027344 0-4.128906 0-7.484375 3.339844-7.496094 7.472657-.003906.976562.183594 1.910156.523438 2.769531l-48.273438 17.53125v-116.9375c0-4.144531-3.359375-7.5-7.5-7.5-4.144531 0-7.5 3.355469-7.5 7.5v122.382812l-13.773438 5v-49.425781c0-9.773437-7.070312-17.910156-16.359374-19.605469v-13.863281c3.601562-.550781 6.359374-3.652343 6.359374-7.40625v-15.238281c0-8.105469-5.769531-14.890625-13.421874-16.457031.570312-11.296875 4.121093-22.15625 10.378906-31.585938 2.289062-3.449219 1.347656-8.105469-2.101563-10.394531-3.453125-2.289062-8.109375-1.351562-10.398437 2.101562-7.828125 11.800782-12.242188 25.402344-12.878906 39.539063h-11.582032c-9.261718 0-16.796875 7.535156-16.796875 16.800781v15.234375c0 3.753907 2.757813 6.855469 6.359375 7.40625v13.851563c-3.023437.542968-5.839844 1.761718-8.257812 3.550781-2.386719-1.753906-5.160156-2.988281-8.183594-3.539063v-13.863281c3.601562-.550781 6.363281-3.652343 6.363281-7.40625v-15.238281c0-9.261719-7.539062-16.796875-16.804687-16.796875h-23.199219c-9.265625 0-16.800781 7.535156-16.800781 16.796875v15.238281c0 3.753907 2.761718 6.855469 6.363281 7.40625v13.863281c-9.289063 1.695313-16.359375 9.832032-16.359375 19.605469v16.683594c0 4.140625 3.355469 7.5 7.5 7.5s7.5-3.359375 7.5-7.5v-16.683594c0-2.726562 2.21875-4.945312 4.941406-4.945312h36.910156c2.726563 0 4.945313 2.21875 4.945313 4.945312v71.09375c0 1.960938-1.597656 3.554688-3.558594 3.554688h-39.679687c-1.960938 0-3.558594-1.59375-3.558594-3.554688v-20.234375c0-4.140625-3.355469-7.5-7.5-7.5s-7.5 3.359375-7.5 7.5v20.234375c0 10.230469 8.324219 18.554688 18.558594 18.554688h39.679687c3.859375 0 7.441407-1.183594 10.414063-3.203125 3.015625 2.050781 6.625 3.203125 10.425781 3.203125h33.382813c4.230468 6.464843 11.453124 10.527343 19.753906 10.53125l142.910156.027343h.007812c7.648438 0 14.964844-2.515624 20.914063-7.070312 6.171875 3.980469 13.390625 6.136719 20.824219 6.136719h102.394531c8.796875 12.304687 23.1875 20.347656 39.433594 20.347656 26.722656 0 48.457031-21.738281 48.457031-48.457031 0-20.941406-13.058594-34.199219-36.285156-37.511719zm-294.335938-361.820313c2.859375-1.167968 5.546875-2.734374 7.984375-4.667968 5.796875 4.597656 12.96875 7.128906 20.582031 7.128906 7.609376 0 14.785157-2.53125 20.578126-7.128906 2.4375 1.933594 5.125 3.5 7.984374 4.667968v54.34375c0 .464844-.378906.847657-.847656.847657h-55.433594c-.46875 0-.847656-.382813-.847656-.847657zm-30.875-30.820312c0-10.082031 8.199219-18.28125 18.28125-18.28125 5.773438 0 11.089844 2.664062 14.589844 7.3125 1.417969 1.878906 3.636719 2.984375 5.988281 2.984375 2.355469 0 4.574219-1.105469 5.992188-2.984375 3.5-4.648438 8.816406-7.3125 14.589843-7.3125 5.769532 0 11.085938 2.664062 14.589844 7.3125 1.414063 1.878906 3.632813 2.984375 5.988282 2.984375 2.351562 0 4.570312-1.105469 5.988281-2.984375 3.503906-4.648438 8.820312-7.3125 14.589843-7.3125 10.082032 0 18.28125 8.203125 18.28125 18.28125 0 10.082031-8.199218 18.285156-18.28125 18.285156-5.769531 0-11.085937-2.667968-14.589843-7.3125-1.417969-1.882812-3.636719-2.984375-5.988281-2.984375-2.355469 0-4.574219 1.105469-5.988282 2.984375-3.503906 4.644532-8.820312 7.3125-14.589844 7.3125-5.773437 0-11.089843-2.664062-14.589843-7.3125-1.417969-1.878906-3.636719-2.984375-5.992188-2.984375-2.351562 0-4.570312 1.101563-5.988281 2.984375-3.5 4.644532-8.816406 7.3125-14.589844 7.3125-10.082031-.003906-18.28125-8.203125-18.28125-18.285156zm-2.472656 83.398438c0-.324219.265625-.589844.589844-.589844h17.757812v2.355468c0 8.738282 7.109375 15.84375 15.847656 15.84375h55.4375c8.738282 0 15.847657-7.105468 15.847657-15.84375v-1.492187c10.699219 2.882813 18.601562 12.664063 18.601562 24.261719v22.210937c0 8.132813-6.621093 14.753907-14.757812 14.753907h-62.40625c-25.871094 0-46.914063-21.046876-46.914063-46.914063v-14.585937zm8.078125 79.777343c0-5.269531.714844-10.410156 2.117187-15.378906 10.277344 7.601563 22.980469 12.105469 36.71875 12.105469h62.410157c4.152343 0 8.105469-.859375 11.699219-2.402344.1875 1.878906.28125 3.777344.28125 5.675781 0 31.21875-25.394532 56.617188-56.613282 56.617188-31.21875-.003907-56.613281-25.398438-56.613281-56.617188zm-105.828125 162.4375v13.429688h-14.078125v-13.429688zm-20.441406-22.734375c0-.996094.808594-1.800781 1.800781-1.800781h23.203125c.992188 0 1.800781.808594 1.800781 1.800781v7.734375h-26.804687zm253.433594 16.132813h-19.808594c-3.484375 0-6.320313-2.835938-6.320313-6.320313s2.835938-6.320312 6.320313-6.320312h19.808594zm0 15v29.34375c-6.082032-1.5-12.503907-1.3125-18.589844.613281v-29.957031zm40.824218 58.570312c1.570313-.273437 3.152344.078125 4.457032.992188 1.304687.914062 2.171874 2.28125 2.449218 3.847656.566406 3.238281-1.601562 6.335937-4.839844 6.90625l-14.371093 2.527344-2.0625-11.746094zm-213.292968-66.96875v13.429688h-14.082032v-13.429688zm-20.441407-22.734375c0-.996094.808594-1.800781 1.800781-1.800781h23.199219c.996094 0 1.800781.808594 1.800781 1.800781v7.734375h-26.800781zm-8.917969 129.742188c.117188-.832032.195313-1.675782.195313-2.539063v-71.09375c0-1.023437-.101563-2.019531-.25-3 .925781-1.214843 2.351563-1.945312 3.917969-1.945312h36.910156c2.726562 0 4.941406 2.21875 4.941406 4.945312v54.964844c-8.042968 3.652344-13.15625 11.148437-13.738281 19.6875h-29.5c-1.0625-.003906-1.894531-.449219-2.476563-1.019531zm198.53125 11.574218h-.003906l-61.082031-.011718-4.613281-26.238282c-.714844-4.078124-4.59375-6.804687-8.683594-6.089843-4.078125.71875-6.804688 4.605469-6.089844 8.6875l4.15625 23.636719-66.597656-.011719c-5.382812-.003907-7.949219-3.714844-8.5625-7.1875-.609375-3.476563.539062-7.839844 5.59375-9.675781l103.996094-37.765626 3.246094 18.46875c.640624 3.640626 3.804687 6.203126 7.378906 6.203126.429687 0 .867187-.039063 1.308594-.113282 4.078124-.71875 6.804687-4.609375 6.085937-8.6875l-3.703125-21.070312 16.015625-5.8125c2.160156-.785156 4.40625-1.171875 6.644531-1.171875 3.375 0 6.726563.878906 9.722656 2.613281 4.984376 2.882812 8.417969 7.789062 9.414063 13.460938l4.917969 27.960937c.996094 5.671875-.554688 11.457031-4.257813 15.867187-3.707031 4.410157-9.128906 6.9375-14.886719 6.9375zm221.867188-131.503906c0 3.484375-2.835938 6.320313-6.320312 6.320313h-19.808594v-12.640625h19.808594c3.484374 0 6.320312 2.835937 6.320312 6.320312zm-93.921875-106.589844c1.582031-3.101562 5.394531-4.347656 8.5-2.761718 1.503906.765625 2.621094 2.070312 3.144531 3.675781.523438 1.605469.386719 3.316406-.378906 4.820313l-1.929688 3.792968-11.265624-5.734375zm-89.992187-4.054687c2.175781-4.277344 5.886718-7.445313 10.445312-8.933594 4.5625-1.480469 9.429688-1.101562 13.707031 1.074219l125.476563 63.882812c4.273437 2.175782 7.445312 5.886719 8.929687 10.449219s1.101563 9.429688-1.074219 13.707031l-3.339843 6.558594-157.484375-80.179687zm145.613281 261.5625c-18.445313 0-33.457031-15.007813-33.457031-33.457031 0-15.484375 11.257812-23.335938 33.457031-23.335938 22.203125 0 33.457031 7.851563 33.457031 23.335938 0 18.449218-15.007812 33.457031-33.457031 33.457031zm0 0"/></svg>