<?xml version="1.0" encoding="iso-8859-1"?>
<!-- Generator: Adobe Illustrator 19.0.0, SVG Export Plug-In . SVG Version: 6.00 Build 0)  -->
<svg version="1.1" id="Capa_1" xmlns="http://www.w3.org/2000/svg" xmlns:xlink="http://www.w3.org/1999/xlink" x="0px" y="0px"
	 viewBox="0 0 512.005 512.005" style="enable-background:new 0 0 512.005 512.005;" xml:space="preserve">
<path style="fill:#8E9FFF;" d="M502.001,299.184v63.999c0,13.255-10.745,24-24,24H319.114c-8.381,0-15.175-6.794-15.175-15.175
	v-81.649c0-8.381,6.794-15.175,15.175-15.175H478C491.255,275.184,502.001,285.929,502.001,299.184z"/>
<rect x="263.94" y="299.181" style="fill:#D2D8FF;" width="40" height="63.999"/>
<path d="M202.967,173.29l-0.334-0.175c-6.03-3.146-10.243-8.692-11.75-15.126c3.348-1.823,6.641-3.779,9.871-5.87
	c5.757,6.585,13.234,11.486,21.707,14.115l0.218,0.068c0.997,0.313,2.005,0.462,2.998,0.462c4.253,0,8.197-2.735,9.538-7.008
	c1.654-5.27-1.277-10.882-6.546-12.536l-0.25-0.078c-4.418-1.371-8.348-3.813-11.526-7.051c3.039-2.596,6.002-5.328,8.876-8.201
	c3.905-3.905,3.905-10.237,0-14.143c-3.905-3.904-10.237-3.904-14.143,0c-51.714,51.714-135.86,51.714-187.574,0
	c-3.905-3.904-10.237-3.904-14.143,0c-3.905,3.905-3.905,10.237,0,14.143c2.874,2.874,5.836,5.605,8.875,8.201
	c-3.18,3.239-7.118,5.684-11.558,7.061l-0.218,0.068c-5.269,1.654-8.2,7.267-6.546,12.536c1.341,4.272,5.285,7.008,9.538,7.008
	c0.992,0,2.001-0.149,2.998-0.462l0.186-0.059c8.497-2.636,15.98-7.539,21.739-14.125c3.231,2.091,6.524,4.048,9.872,5.87
	c-1.507,6.434-5.722,11.982-11.759,15.131l-0.331,0.173c-4.894,2.559-6.787,8.601-4.228,13.495c1.786,3.415,5.266,5.368,8.87,5.368
	c1.561,0,3.146-0.367,4.625-1.141l0.322-0.168c10.039-5.237,17.384-14.037,20.863-24.395c4.203,1.606,8.463,3.015,12.766,4.237
	c-0.742,7.636-3.137,15.053-7.042,21.698l-0.748,1.272c-2.798,4.762-1.205,10.89,3.557,13.688c1.591,0.935,3.335,1.38,5.056,1.38
	c3.429,0,6.769-1.766,8.631-4.937l0.747-1.271c4.991-8.494,8.191-17.902,9.445-27.618c4.074,0.596,8.167,1.022,12.269,1.29v28.85
	c0,5.522,4.477,10,10,10s10-4.478,10-10v-28.85c4.102-0.267,8.196-0.694,12.27-1.29c1.254,9.716,4.453,19.124,9.444,27.617
	l0.748,1.272c1.863,3.171,5.202,4.937,8.631,4.937c1.721,0,3.465-0.445,5.056-1.38c4.762-2.798,6.354-8.926,3.557-13.688
	l-0.748-1.273c-3.905-6.645-6.3-14.061-7.042-21.697c4.303-1.222,8.563-2.631,12.766-4.237
	c3.479,10.358,10.822,19.157,20.859,24.393l0.331,0.173c1.479,0.772,3.061,1.138,4.62,1.138c3.605,0,7.088-1.956,8.873-5.374
	C209.759,181.886,207.863,175.845,202.967,173.29z"/>
<path d="M286.328,166.763c0.992,0,2.001-0.149,2.998-0.462l0.186-0.059c8.497-2.636,15.98-7.539,21.739-14.125
	c3.231,2.091,6.524,4.048,9.872,5.87c-1.507,6.434-5.72,11.981-11.753,15.128l-0.331,0.173c-4.896,2.556-6.792,8.597-4.236,13.492
	c1.784,3.418,5.267,5.374,8.873,5.374c1.56,0,3.142-0.366,4.62-1.138l0.328-0.171c10.039-5.237,17.383-14.037,20.862-24.395
	c4.203,1.606,8.463,3.015,12.766,4.237c-0.742,7.637-3.137,15.053-7.042,21.698l-0.748,1.272c-2.798,4.762-1.205,10.89,3.557,13.688
	c1.591,0.935,3.335,1.38,5.056,1.38c3.429,0,6.769-1.766,8.631-4.937l0.747-1.271c4.991-8.494,8.191-17.902,9.445-27.618
	c4.074,0.596,8.167,1.022,12.27,1.29v28.85c0,5.522,4.477,10,10,10c5.523,0,10-4.478,10-10v-28.85
	c4.102-0.267,8.196-0.694,12.269-1.29c1.254,9.716,4.454,19.125,9.446,27.62l0.748,1.272c1.863,3.169,5.201,4.934,8.63,4.934
	c1.722,0,3.467-0.445,5.059-1.381c4.761-2.799,6.352-8.928,3.553-13.689l-0.747-1.271c-3.905-6.645-6.3-14.061-7.042-21.697
	c4.303-1.221,8.563-2.631,12.766-4.237c3.479,10.358,10.821,19.156,20.854,24.39l0.331,0.173c1.479,0.774,3.064,1.141,4.625,1.141
	c3.604,0,7.084-1.954,8.87-5.368c2.559-4.895,0.666-10.937-4.228-13.495l-0.339-0.178c-6.03-3.146-10.243-8.692-11.75-15.126
	c3.348-1.822,6.641-3.779,9.872-5.87c5.757,6.585,13.233,11.486,21.707,14.115l0.218,0.068c0.997,0.313,2.005,0.462,2.998,0.462
	c4.253,0,8.197-2.735,9.538-7.008c1.654-5.27-1.277-10.882-6.546-12.536l-0.25-0.078c-4.418-1.371-8.348-3.813-11.526-7.051
	c3.04-2.596,6.002-5.328,8.876-8.201c3.905-3.905,3.905-10.237,0-14.143c-3.905-3.904-10.237-3.904-14.143,0
	c-51.715,51.714-135.86,51.714-187.574,0c-3.905-3.904-10.237-3.904-14.143,0c-3.905,3.905-3.905,10.237,0,14.143
	c2.874,2.874,5.836,5.604,8.875,8.201c-3.18,3.239-7.118,5.684-11.558,7.061l-0.218,0.068c-5.269,1.654-8.2,7.267-6.546,12.536
	C278.132,164.028,282.075,166.763,286.328,166.763z"/>
<path d="M410.331,377.179c-2.63,0-5.21,1.07-7.07,2.93c-1.86,1.86-2.93,4.44-2.93,7.07c0,2.64,1.07,5.21,2.93,7.07
	c1.87,1.87,4.44,2.939,7.07,2.939c2.63,0,5.21-1.069,7.07-2.939c1.86-1.86,2.93-4.431,2.93-7.07c0-2.63-1.07-5.21-2.93-7.07
	C415.542,378.249,412.971,377.179,410.331,377.179z"/>
<path d="M478.001,265.184H319.114c-13.488,0-24.529,10.662-25.146,24h-30.03c-5.523,0-10,4.478-10,10v22h-28.265
	c-5.523,0-10,4.478-10,10s4.477,10,10,10h28.265v22c0,5.522,4.477,10,10,10h30.03c0.616,13.338,11.658,24,25.146,24h51.221
	c5.523,0,10-4.478,10-10s-4.477-10-10-10h-51.221c-2.854,0-5.175-2.321-5.175-5.175V290.36c0-2.854,2.322-5.176,5.175-5.176H478
	c7.72,0,14,6.28,14,14v63.999c0,7.72-6.28,14-14,14h-27c-5.523,0-10,4.478-10,10s4.477,10,10,10h27c18.748,0,34-15.252,34-34
	v-63.999C512.001,280.436,496.748,265.184,478.001,265.184z M273.939,309.184h20v44h-20V309.184z"/>
<path d="M149.505,321.184h-1.501v-11.327c0-5.522-4.477-10-10-10c-5.523,0-10,4.478-10,10v11.327h-12v-11.327
	c0-5.522-4.477-10-10-10s-10,4.478-10,10v11.327h-12v-11.327c0-5.522-4.477-10-10-10s-10,4.478-10,10v11.327h-12v-11.327
	c0-5.522-4.477-10-10-10s-10,4.478-10,10v11.327h-12v-11.327c0-5.522-4.477-10-10-10s-10,4.478-10,10v42.655c0,5.522,4.477,10,10,10
	s10-4.478,10-10v-11.328h12v11.328c0,5.522,4.477,10,10,10s10-4.478,10-10v-11.328h12v11.328c0,5.522,4.477,10,10,10s10-4.478,10-10
	v-11.328h12v11.328c0,5.522,4.477,10,10,10s10-4.478,10-10v-11.328h12v11.328c0,5.522,4.477,10,10,10c5.523,0,10-4.478,10-10
	v-11.328h1.501c5.523,0,10-4.478,10-10S155.028,321.184,149.505,321.184z"/>
<path d="M190.843,321.19c-2.64,0-5.21,1.061-7.07,2.92c-1.86,1.86-2.93,4.44-2.93,7.07s1.07,5.21,2.93,7.07
	c1.86,1.87,4.44,2.93,7.07,2.93c2.63,0,5.21-1.06,7.07-2.93c1.86-1.86,2.93-4.431,2.93-7.07c0-2.63-1.07-5.21-2.93-7.07
	C196.053,322.25,193.473,321.19,190.843,321.19z"/>
<g>
</g>
<g>
</g>
<g>
</g>
<g>
</g>
<g>
</g>
<g>
</g>
<g>
</g>
<g>
</g>
<g>
</g>
<g>
</g>
<g>
</g>
<g>
</g>
<g>
</g>
<g>
</g>
<g>
</g>
</svg>
