<svg id="Capa_1" enable-background="new 0 0 511.979 511.979" height="512" viewBox="0 0 511.979 511.979" width="512" xmlns="http://www.w3.org/2000/svg"><path id="XMLID_1864_" d="m501.613 487.298-92.18-409.274-.144.033c-7.835 13.817-22.667 23.147-39.684 23.147-128.935.001-236.906 91.412-262.547 212.827l-1.561 49.006h19.028c19.59 0 35.472 15.881 35.472 35.472v80.907c0 12.462 10.103 22.564 22.564 22.564 12.462 0 22.564-10.102 22.564-22.564v-12.684c0-8.525 6.911-15.436 15.436-15.436 5.401 0 10.155-2.774 12.913-6.976l-.003-.002 253.829 57.287c8.578 1.936 16.245-5.728 14.313-14.307z" fill="#ffe6c0"/><path id="XMLID_1722_" d="m115.373 115.306c33.005-33.005 71.45-58.922 114.269-77.033 44.356-18.76 91.447-28.273 139.963-28.273 25.186 0 45.602 20.416 45.602 45.602 0 25.184-20.417 45.602-45.602 45.602-147.961.001-268.334 120.375-268.335 268.335 0 25.184-20.417 45.602-45.602 45.602-25.186 0-45.602-20.416-45.602-45.602 0-48.517 9.513-95.608 28.273-139.963 18.112-42.819 44.029-81.265 77.034-114.27z" fill="#ffcb7c"/><path id="XMLID_1836_" d="m124.526 363.036h-19.028l-4.246 7.187c-.246 16.673-9.437 31.171-22.991 38.921l-.075.127 81.807 18.463h.005v-29.226c0-19.591-15.881-35.472-35.472-35.472z" fill="#ffcb7c"/><circle id="XMLID_1247_" cx="254.337" cy="254.315" fill="#f5737f" r="59.341"/><path id="XMLID_1240_" d="m468.105 338.517c-10.45 9.188-24.157 14.76-39.166 14.76-32.773 0-59.341-26.568-59.341-59.341s26.568-59.34 59.341-59.34c5.641 0 11.098.787 16.267 2.257z" fill="#f5737f"/><path id="XMLID_1999_" d="m384.125 174.186-18.668 18.668c-2.798 2.798-7.334 2.798-10.132 0l-18.668-18.668c-2.798-2.798-2.798-7.334 0-10.132l18.668-18.668c2.798-2.798 7.334-2.798 10.132 0l18.668 18.668c2.798 2.797 2.798 7.334 0 10.132z" fill="#d8ec84"/><path id="XMLID_1998_" d="m447.998 415.229v25.76c0 3.861-3.13 6.991-6.991 6.991h-25.76c-3.861 0-6.991-3.13-6.991-6.991v-25.76c0-3.861 3.13-6.991 6.991-6.991h25.76c3.861 0 6.991 3.13 6.991 6.991z" fill="#d8ec84"/><path id="XMLID_889_" d="m239.147 445.602c-2.042-6-3.149-12.433-3.149-19.124 0-32.773 26.568-59.341 59.341-59.341s59.341 26.568 59.341 59.341c0 16.103-6.414 30.708-16.827 41.399z" fill="#f5737f"/><path id="XMLID_339_" d="m254.336 184.975c-38.234 0-69.34 31.106-69.34 69.34s31.105 69.34 69.34 69.34 69.341-31.106 69.341-69.34-31.107-69.34-69.341-69.34zm0 118.68c-27.206 0-49.34-22.134-49.34-49.34s22.134-49.34 49.34-49.34c27.207 0 49.341 22.134 49.341 49.34s-22.134 49.34-49.341 49.34z"/><path id="XMLID_340_" d="m272.68 226.819c-2.63 0-5.21 1.07-7.069 2.93-1.86 1.86-2.931 4.44-2.931 7.07s1.07 5.21 2.931 7.07c1.859 1.86 4.439 2.93 7.069 2.93s5.21-1.07 7.07-2.93 2.93-4.44 2.93-7.07-1.069-5.21-2.93-7.07-4.44-2.93-7.07-2.93z"/><path id="XMLID_341_" d="m231.62 236.55c-2.64 0-5.22 1.07-7.07 2.93-1.87 1.87-2.939 4.44-2.939 7.08 0 2.63 1.069 5.2 2.939 7.07 1.851 1.86 4.431 2.93 7.07 2.93 2.63 0 5.2-1.07 7.07-2.93 1.859-1.87 2.93-4.45 2.93-7.07 0-2.63-1.07-5.21-2.93-7.08-1.87-1.86-4.44-2.93-7.07-2.93z"/><path id="XMLID_342_" d="m260.58 267.25c-2.64 0-5.21 1.07-7.07 2.93-1.87 1.86-2.93 4.44-2.93 7.07s1.06 5.21 2.93 7.07c1.86 1.86 4.431 2.93 7.07 2.93 2.63 0 5.2-1.07 7.07-2.93 1.859-1.86 2.93-4.44 2.93-7.07s-1.07-5.21-2.93-7.07c-1.87-1.861-4.44-2.93-7.07-2.93z"/><path id="XMLID_792_" d="m406.22 276.18c-2.63 0-5.21 1.06-7.069 2.92-1.86 1.87-2.931 4.45-2.931 7.08s1.07 5.21 2.931 7.07c1.859 1.86 4.439 2.93 7.069 2.93s5.21-1.07 7.07-2.93 2.93-4.44 2.93-7.07-1.069-5.21-2.93-7.08c-1.86-1.86-4.44-2.92-7.07-2.92z"/><path id="XMLID_890_" d="m425.18 316.87c0 2.63 1.07 5.21 2.931 7.07 1.859 1.86 4.43 2.93 7.069 2.93 2.63 0 5.21-1.07 7.07-2.93s2.93-4.43 2.93-7.07c0-2.63-1.069-5.21-2.93-7.07-1.86-1.86-4.44-2.93-7.07-2.93s-5.21 1.07-7.069 2.93c-1.861 1.86-2.931 4.44-2.931 7.07z"/><path id="XMLID_925_" d="m372.529 199.924 18.667-18.667c6.692-6.693 6.692-17.582 0-24.274l-18.667-18.668c-6.693-6.692-17.582-6.693-24.275 0l-18.666 18.666c-3.243 3.242-5.028 7.553-5.028 12.138 0 4.586 1.785 8.896 5.027 12.137l18.667 18.668c3.242 3.242 7.553 5.027 12.138 5.027s8.895-1.785 12.137-5.027zm-26.794-30.804 14.657-14.658 14.657 14.658-14.657 14.658z"/><path id="XMLID_938_" d="m441.007 398.238h-25.76c-9.369 0-16.991 7.622-16.991 16.991v25.76c0 9.369 7.622 16.991 16.991 16.991h25.76c9.369 0 16.991-7.622 16.991-16.991v-25.76c0-9.369-7.622-16.991-16.991-16.991zm-3.009 39.741h-19.742v-19.742h19.742z"/><path id="XMLID_940_" d="m334.56 324.54c-2.63 0-5.21 1.07-7.069 2.93-1.86 1.86-2.931 4.43-2.931 7.07 0 2.63 1.07 5.21 2.931 7.07 1.859 1.86 4.439 2.93 7.069 2.93 2.631 0 5.21-1.07 7.07-2.93s2.93-4.44 2.93-7.07-1.069-5.21-2.93-7.07c-1.86-1.861-4.439-2.93-7.07-2.93z"/><path id="XMLID_941_" d="m201.68 343.28c-2.63 0-5.21 1.06-7.069 2.93-1.86 1.86-2.931 4.44-2.931 7.07s1.07 5.21 2.931 7.07c1.859 1.86 4.439 2.93 7.069 2.93s5.21-1.07 7.07-2.93 2.93-4.44 2.93-7.07-1.069-5.21-2.93-7.07c-1.86-1.871-4.44-2.93-7.07-2.93z"/><path id="XMLID_957_" d="m82.439 237.366c-5.088-2.153-10.955.228-13.105 5.314-17 40.193-25.619 82.879-25.619 126.873 0 5.523 4.478 10 10 10s10-4.477 10-10c0-41.302 8.088-81.367 24.039-119.082 2.15-5.086-.228-10.953-5.315-13.105z"/><path id="XMLID_1033_" d="m255.881 74.552c-2.15-5.086-8.019-7.467-13.105-5.314-38.811 16.416-73.666 39.915-103.598 69.845-3.905 3.905-3.905 10.237 0 14.142 1.953 1.953 4.512 2.929 7.071 2.929s5.118-.977 7.071-2.929c28.101-28.1 60.819-50.16 97.246-65.567 5.087-2.152 7.466-8.019 5.315-13.106z"/><path id="XMLID_1244_" d="m313.68 398.979c-2.63 0-5.21 1.07-7.069 2.93-1.86 1.87-2.931 4.44-2.931 7.07 0 2.64 1.07 5.21 2.931 7.08 1.859 1.86 4.439 2.93 7.069 2.93s5.21-1.07 7.07-2.93c1.87-1.87 2.93-4.44 2.93-7.08 0-2.63-1.06-5.2-2.93-7.07-1.86-1.859-4.44-2.93-7.07-2.93z"/><path id="XMLID_1543_" d="m272.62 408.72c-2.63 0-5.21 1.06-7.07 2.93-1.859 1.86-2.93 4.44-2.93 7.07s1.07 5.21 2.93 7.07 4.44 2.93 7.07 2.93 5.21-1.07 7.07-2.93c1.859-1.87 2.93-4.44 2.93-7.07s-1.07-5.21-2.93-7.07c-1.86-1.87-4.44-2.93-7.07-2.93z"/><path id="XMLID_1990_" d="m511.368 485.101-33.5-148.74c-.01-.044-.02-.088-.03-.132l-22.862-101.509c-.007-.031-.014-.061-.021-.092l-35.011-155.447c3.369-7.164 5.263-15.153 5.263-23.58 0-30.658-24.942-55.601-55.601-55.601-49.862 0-98.264 9.778-143.858 29.063-44.01 18.614-83.523 45.251-117.445 79.171-33.922 33.922-60.559 73.436-79.173 117.446-19.285 45.595-29.063 93.996-29.063 143.859 0 30.659 24.942 55.602 55.602 55.602 8.493 0 16.543-1.921 23.75-5.34l70.58 15.929v43.686c0 17.956 14.608 32.564 32.564 32.564s32.564-14.608 32.564-32.564v-12.684c0-2.997 2.438-5.436 5.436-5.436 6.079 0 11.836-2.147 16.356-5.949l248.179 56.012c7.393 1.667 15.009-.534 20.369-5.892 5.361-5.359 7.566-12.972 5.901-20.366zm-54.412-150.561c-8.197 5.66-17.95 8.737-28.017 8.737-27.207 0-49.341-22.134-49.341-49.34s22.134-49.341 49.341-49.341c2.66 0 5.301.218 7.902.636zm-357.551 69.268c6.747-8.592 11.021-19.205 11.743-30.772h13.378c14.045 0 25.472 11.427 25.472 25.472v16.719zm146.593 22.671c0-27.207 22.134-49.341 49.341-49.341 27.206 0 49.34 22.134 49.34 49.341 0 11.112-3.677 21.694-10.431 30.331l-87.084-19.654c-.769-3.487-1.166-7.06-1.166-10.677zm245.33 64.842c-.351.35-.951.728-1.827.528l-134.311-30.313c6.187-10.529 9.489-22.558 9.489-35.058 0-38.235-31.105-69.341-69.34-69.341s-69.341 31.106-69.341 69.341c0 3.505.273 6.981.79 10.412-.661.595-1.252 1.277-1.743 2.047-1.021 1.479-2.687 2.358-4.482 2.358-14.025 0-25.436 11.41-25.436 25.436v12.684c0 6.928-5.637 12.564-12.564 12.564s-12.564-5.636-12.564-12.564v-80.907c0-25.073-20.398-45.472-45.472-45.472h-12.728c3.021-47.912 19.18-93.576 47.205-132.949 3.202-4.5 2.15-10.743-2.349-13.946s-10.742-2.151-13.946 2.348c-33.65 47.277-51.438 102.967-51.438 161.049 0 19.631-15.971 35.602-35.602 35.602s-35.602-15.971-35.602-35.602c0-47.171 9.247-92.951 27.483-136.067 17.605-41.626 42.804-79.003 74.895-111.094s69.468-57.289 111.094-74.894c43.115-18.236 88.896-27.483 136.067-27.483 19.631 0 35.602 15.971 35.602 35.602s-15.971 35.602-35.602 35.602c-58.119 0-113.838 17.808-161.132 51.498-4.498 3.205-5.548 9.449-2.343 13.947 3.204 4.498 9.448 5.547 13.946 2.343 43.887-31.263 95.593-47.787 149.528-47.788 12.963 0 24.895-4.472 34.361-11.937l28.247 125.416c-1.089-.051-2.18-.086-3.274-.086-38.234 0-69.341 31.106-69.341 69.341 0 38.234 31.106 69.34 69.341 69.34 11.481 0 22.677-2.846 32.649-8.17l30.268 134.388c.198.875-.178 1.476-.528 1.825z"/><path id="XMLID_1994_" d="m189.93 179.91c0-2.63-1.069-5.21-2.93-7.07-1.86-1.86-4.44-2.93-7.07-2.93s-5.21 1.07-7.069 2.93c-1.86 1.86-2.931 4.44-2.931 7.07s1.07 5.21 2.931 7.07c1.859 1.86 4.439 2.93 7.069 2.93s5.2-1.07 7.07-2.93c1.861-1.86 2.93-4.44 2.93-7.07z"/></svg>