<?xml version="1.0" encoding="iso-8859-1"?>
<!-- Generator: Adobe Illustrator 19.0.0, SVG Export Plug-In . SVG Version: 6.00 Build 0)  -->
<svg version="1.1" id="Capa_1" xmlns="http://www.w3.org/2000/svg" xmlns:xlink="http://www.w3.org/1999/xlink" x="0px" y="0px"
	 viewBox="0 0 512.002 512.002" style="enable-background:new 0 0 512.002 512.002;" xml:space="preserve">
<g>
	<path style="fill:#BCCBD3;" d="M55,105h60.001c5.5,0,9.999-4.5,9.999-10V55c0-5.502-4.499-10-9.999-10H55c-5.5,0-10,4.498-10,10v40
		C45,100.5,49.5,105,55,105z"/>
	<path style="fill:#E1E6E9;" d="M125,55v40c0,5.5-4.499,10-9.999,10H55c-5.5,0-10-4.5-10-10V55c0-5.502,4.5-10,10-10h60.001
		C120.501,45,125,49.498,125,55L125,55z M462.002,10H50c-22,0-40,17.998-40,40v115.902h142.111
		C172.874,130.088,211.625,106,256.001,106s83.127,24.088,103.89,59.902h47.111c0-11.045,8.955-20,20-20c11.046,0,20,8.955,20,20h55
		V50C502.002,27.998,484.002,10,462.002,10L462.002,10z M387.002,65c0-11.002,9-20,20-20h40c11.001,0,20,8.998,20,20
		c0,11-8.999,20-20,20h-40C396.002,85,387.002,76,387.002,65z"/>
	<path style="fill:#FFC36C;" d="M407.002,45c-11,0-20,8.998-20,20c0,11,9,20,20,20h40c11.001,0,20-9,20-20c0-11.002-8.999-20-20-20
		H407.002z"/>
	<circle style="fill:#F74F5C;" cx="427" cy="165.9" r="20"/>
	<path style="fill:#636A75;" d="M359.891,165.902C339.128,130.088,300.377,106,256.001,106s-83.127,24.088-103.89,59.902
		c-10.245,17.674-16.11,38.201-16.11,60.098c0,66.275,53.726,120,120,120s120.001-53.725,120.001-120
		C376.002,204.104,370.136,183.576,359.891,165.902L359.891,165.902z M256.001,141c46.944,0,85,38.057,85,85
		c0,46.945-38.056,85-85,85s-85-38.055-85-85C171.001,179.057,209.057,141,256.001,141z"/>
	<circle style="fill:#BCCBD3;" cx="256" cy="226" r="85"/>
	<path style="fill:#4AD194;" d="M359.891,165.902c10.245,17.674,16.111,38.201,16.111,60.098c0,66.275-53.727,120-120.001,120
		s-120-53.725-120-120c0-21.896,5.865-42.424,16.11-60.098H10V402h492.002V165.902h-55c0,11.045-8.954,20-20,20
		c-11.045,0-20-8.955-20-20H359.891z"/>
	<path style="fill:#636A75;" d="M502.002,402H10v60.002c0,22,18,40,40,40h412.002c22,0,40-18,40-40V402z"/>
</g>
<path d="M462.002,0H50C22.43,0,0,22.43,0,50v412.002c0,27.57,22.43,50,50,50h412.002c27.57,0,50-22.43,50-50V50
	C512.002,22.43,489.572,0,462.002,0z M20,175.902h116.047c-6.467,15.426-10.046,32.352-10.046,50.098c0,71.683,58.317,130,130,130
	s130.001-58.317,130.001-130c0-17.746-3.579-34.672-10.046-50.098h22.767c4.127,11.639,15.243,20,28.279,20
	c13.036,0,24.152-8.361,28.279-20h36.721V392H20V175.902z M366.002,226c0,60.654-49.347,110-110.001,110s-110-49.346-110-110
	s49.346-110,110-110S366.002,165.346,366.002,226z M417.002,165.902c0-5.514,4.486-10,10-10s10,4.486,10,10s-4.486,10-10,10
	S417.002,171.416,417.002,165.902z M50,20h412.002c16.542,0,30,13.458,30,30v105.902h-36.721c-4.127-11.639-15.243-20-28.279-20
	c-13.036,0-24.152,8.361-28.279,20H365.44C342.299,119.898,301.889,96,256.001,96s-86.298,23.898-109.439,59.902H20V50
	C20,33.458,33.458,20,50,20z M462.002,492.002H50c-16.542,0-30-13.458-30-30V412h472.002v50.002
	C492.002,478.544,478.544,492.002,462.002,492.002z"/>
<path d="M436.002,442h-360c-5.522,0-10,4.478-10,10s4.478,10,10,10h360c5.522,0,10-4.478,10-10S441.525,442,436.002,442z"/>
<path d="M256.001,131c-52.383,0-95,42.617-95,95s42.617,95,95,95s95-42.617,95-95S308.384,131,256.001,131z M256.001,301
	c-41.355,0-75-33.645-75-75s33.645-75,75-75s75,33.645,75,75S297.357,301,256.001,301z"/>
<path d="M301.712,203.4c-5.335,1.429-8.502,6.911-7.074,12.246c0.904,3.379,1.363,6.862,1.363,10.354
	c0,9.348-3.298,18.448-9.285,25.625c-3.538,4.24-2.969,10.547,1.272,14.085c1.87,1.561,4.142,2.321,6.401,2.321
	c2.862,0,5.706-1.224,7.684-3.594c8.981-10.766,13.928-24.416,13.928-38.438c0-5.237-0.688-10.461-2.043-15.525
	C312.529,205.141,307.049,201.972,301.712,203.4z"/>
<path d="M266.565,264.58l-0.209,0.057c-5.335,1.429-8.502,6.911-7.074,12.246c1.196,4.469,5.237,7.417,9.654,7.417
	c0.855,0,1.726-0.111,2.592-0.343l0.531-0.146c5.311-1.518,8.386-7.052,6.868-12.362C277.411,266.138,271.879,263.06,266.565,264.58
	z"/>
<path d="M407.002,95h40c16.542,0,30-13.458,30-30s-13.458-30-30-30h-40c-16.542,0-30,13.458-30,30S390.46,95,407.002,95z
	 M407.002,55h40c5.514,0,10,4.486,10,10s-4.486,10-10,10h-40c-5.514,0-10-4.486-10-10S401.488,55,407.002,55z"/>
<path d="M55,115h60.001C126.028,115,135,106.028,135,95V55c0-11.028-8.972-20-19.999-20H55c-11.028,0-20,8.972-20,20v40
	C35,106.028,43.972,115,55,115z M55,55h60l0.003,40H55V55z"/>
<path d="M105.035,357.002h-0.27c-5.522,0-10,4.477-10,10c0,5.522,4.478,10,10,10h0.27c5.522,0,10-4.478,10-10
	C115.035,361.479,110.558,357.002,105.035,357.002z"/>
<path d="M76.035,357.002H45c-5.522,0-10,4.477-10,10c0,5.522,4.478,10,10,10h31.035c5.522,0,10-4.478,10-10
	C86.035,361.479,81.558,357.002,76.035,357.002z"/>
<g>
</g>
<g>
</g>
<g>
</g>
<g>
</g>
<g>
</g>
<g>
</g>
<g>
</g>
<g>
</g>
<g>
</g>
<g>
</g>
<g>
</g>
<g>
</g>
<g>
</g>
<g>
</g>
<g>
</g>
</svg>
