<svg height="512pt" viewBox="0 -42 512 512" width="512pt" xmlns="http://www.w3.org/2000/svg"><path d="m402.886719 110.769531h-278.832031c-16.605469 0-30.0625-13.457031-30.0625-30.0625v-34.488281c0-16.605469 13.457031-30.066406 30.0625-30.066406h278.828124c16.605469 0 30.066407 13.460937 30.066407 30.066406v34.488281c0 16.605469-13.460938 30.0625-30.0625 30.0625zm0 0" fill="#38aaff"/><path d="m432.949219 58.710938v22c0 16.597656-13.460938 30.058593-30.070313 30.058593h-278.820312c-16.609375 0-30.070313-13.460937-30.070313-30.058593v-22c0 16.597656 13.460938 30.058593 30.070313 30.058593h278.820312c16.609375 0 30.070313-13.460937 30.070313-30.058593zm0 0" fill="#2081f6"/><g fill="#fff0cf"><path d="m181 116.832031h-4.667969c-5.523437 0-10-4.476562-10-10v-89.332031c0-5.523438 4.476563-10 10-10h4.667969c5.523438 0 10 4.476562 10 10v89.332031c0 5.523438-4.476562 10-10 10zm0 0"/><path d="m278.136719 116.832031h-4.667969c-5.523438 0-10-4.476562-10-10v-89.332031c0-5.523438 4.476562-10 10-10h4.667969c5.523437 0 10 4.476562 10 10v89.332031c0 5.523438-4.476563 10-10 10zm0 0"/><path d="m375.273438 116.832031h-4.667969c-5.523438 0-10-4.476562-10-10v-89.332031c0-5.523438 4.476562-10 10-10h4.667969c5.523437 0 10 4.476562 10 10v89.332031c0 5.523438-4.476563 10-10 10zm0 0"/></g><path d="m481.140625 386.527344h-457.355469v-45.429688c0-10.046875 2.625-19.726562 7.414063-28.207031 3.277343-5.8125 7.566406-11.046875 12.714843-15.457031l10.671876-57.839844c.160156-2.253906.511718-4.441406 1.042968-6.566406 4.179688-16.6875 19.257813-28.859375 37.023438-28.859375h341.644531c17.777344 0 32.84375 12.191406 37.015625 28.859375.566406 2.265625.933594 4.617187 1.078125 7.023437zm0 0" fill="#e6f072"/><path d="m481.140625 386.53125h-21.3125l-8.757813-146.480469c-.140624-2.410156-.511718-4.761719-1.070312-7.019531-4.171875-16.671875-19.238281-28.859375-37.019531-28.859375h21.320312c17.769531 0 32.839844 12.1875 37.007813 28.859375.570312 2.257812.941406 4.609375 1.082031 7.019531zm0 0" fill="#cbd359"/><path d="m471.308594 233.03125h-415.679688c4.179688-16.691406 19.261719-28.859375 37.019532-28.859375h341.652343c17.769531 0 32.839844 12.1875 37.007813 28.859375zm0 0" fill="#d0f4ef"/><path d="m471.308594 233.03125h-21.308594c-4.171875-16.671875-19.238281-28.859375-37.019531-28.859375h21.320312c17.769531 0 32.839844 12.1875 37.007813 28.859375zm0 0" fill="#abe0da"/><path d="m44.828125 331.007812c0 10.015626-6.5 18.148438-14.511719 18.148438-2.351562 0-4.574218-.695312-6.53125-1.949219v-6.105469c0-10.050781 2.621094-19.726562 7.414063-28.207031 7.597656.566407 13.628906 8.46875 13.628906 18.113281zm0 0" fill="#f55"/><path d="m54.8125 405.035156h-29.347656c-9.921875 0-17.964844-8.042968-17.964844-17.960937 0-9.921875 8.042969-17.964844 17.964844-17.964844h29.347656c9.921875 0 17.960938 8.042969 17.960938 17.964844 0 9.917969-8.042969 17.960937-17.960938 17.960937zm0 0" fill="#abe0da"/><path d="m486.535156 405.035156h-29.347656c-9.921875 0-17.960938-8.042968-17.960938-17.960937 0-9.921875 8.039063-17.964844 17.960938-17.964844h29.347656c9.921875 0 17.964844 8.042969 17.964844 17.964844 0 9.917969-8.042969 17.960937-17.964844 17.960937zm0 0" fill="#abe0da"/><path d="m164.03125 386.527344c0 18.941406-15.355469 34.292968-34.292969 34.292968-18.941406 0-34.292969-15.351562-34.292969-34.292968 0-18.9375 15.351563-34.292969 34.292969-34.292969 18.9375 0 34.292969 15.355469 34.292969 34.292969zm0 0" fill="#4c78a0"/><path d="m412.820312 386.527344c0 18.941406-15.351562 34.292968-34.292968 34.292968-18.9375 0-34.292969-15.351562-34.292969-34.292968 0-18.9375 15.355469-34.292969 34.292969-34.292969 18.941406 0 34.292968 15.355469 34.292968 34.292969zm0 0" fill="#4c78a0"/><path d="m142.800781 386.527344c0 7.214844-5.847656 13.066406-13.0625 13.066406-7.214843 0-13.066406-5.851562-13.066406-13.066406s5.851563-13.0625 13.066406-13.0625c7.214844 0 13.0625 5.847656 13.0625 13.0625zm0 0" fill="#abe0da"/><path d="m391.59375 386.527344c0 7.214844-5.851562 13.066406-13.066406 13.066406s-13.0625-5.851562-13.0625-13.066406 5.847656-13.0625 13.0625-13.0625 13.066406 5.847656 13.066406 13.0625zm0 0" fill="#abe0da"/><path d="m179.101562 243.914062v22.503907c0 6.007812-4.875 10.886719-10.886718 10.886719h-79.570313c-6.640625 0-11.734375-5.902344-10.765625-12.476563l3.320313-22.503906c.785156-5.34375 5.367187-9.296875 10.765625-9.296875h76.25c6.011718 0 10.886718 4.878906 10.886718 10.886718zm0 0" fill="#60daff"/><path d="m160.78125 233.027344-44.273438 44.277344h-23.625l44.273438-44.277344zm0 0" fill="#a0ecff"/><path d="m282.160156 277.300781h-70.402344c-6.011718 0-10.886718-4.875-10.886718-10.886719v-22.5c0-6.011718 4.875-10.886718 10.886718-10.886718h70.402344c6.011719 0 10.886719 4.875 10.886719 10.886718v22.5c0 6.011719-4.875 10.886719-10.886719 10.886719zm0 0" fill="#60daff"/><path d="m286.410156 233.027344-44.273437 44.277344h-23.625l44.273437-44.277344zm0 0" fill="#a0ecff"/><path d="m426.5 254.007812v12.410157c0 6.007812-4.875 10.886719-10.886719 10.886719h-90c-6.007812 0-10.886719-4.875-10.886719-10.886719v-22.503907c0-6.007812 4.878907-10.886718 10.886719-10.886718h79.910157c5.007812 0 9.625 1.765625 13.226562 4.691406 4.722656 3.855469 7.75 9.714844 7.75 16.289062zm0 0" fill="#60daff"/><path d="m418.75 237.722656-39.59375 39.582032h-45.757812l44.277343-44.277344h27.847657c5.007812 0 9.621093 1.765625 13.226562 4.695312zm0 0" fill="#a0ecff"/><path d="m321.667969 367.109375 10.136719-10.136719h86.945312l8.945312 8.945313h7.972657v-30.417969h-120.941407v31.609375zm0 0" fill="#e6f072"/><path d="m418.75 168.371094v28.597656c0 6.921875-5.609375 12.53125-12.53125 12.53125h-137.6875c-6.921875 0-12.53125-5.609375-12.53125-12.53125v-28.597656c0-6.921875 5.609375-12.53125 12.53125-12.53125h137.6875c6.921875 0 12.53125 5.609375 12.53125 12.53125zm0 0" fill="#f55"/><path d="m418.75 168.371094v28.597656c0 6.921875-5.609375 12.53125-12.53125 12.53125h-31.539062v-53.660156h31.539062c6.921875 0 12.53125 5.609375 12.53125 12.53125zm0 0" fill="#e6f072"/><path d="m418.75 116.710938v28.601562c0 6.917969-5.609375 12.527344-12.53125 12.527344h-137.6875c-6.921875 0-12.53125-5.609375-12.53125-12.527344v-28.601562c0-6.921876 5.609375-12.53125 12.53125-12.53125h137.6875c6.921875 0 12.53125 5.609374 12.53125 12.53125zm0 0" fill="#d6bcab"/><path d="m418.75 116.710938v28.601562c0 6.917969-5.609375 12.527344-12.53125 12.527344h-31.539062v-53.660156h31.539062c6.921875 0 12.53125 5.609374 12.53125 12.53125zm0 0" fill="#628fb1"/><path d="m218 211.667969h-87.488281c-5.523438 0-10-4.476563-10-10v-87.488281c0-5.523438 4.476562-10 10-10h87.488281c5.523438 0 10 4.476562 10 10v87.488281c0 5.523437-4.476562 10-10 10zm0 0" fill="#eea97b"/><path d="m487.164062 361.628906-4.550781-76.222656c-.246093-4.136719-3.785156-7.28125-7.933593-7.042969-4.132813.25-7.285157 3.800781-7.039063 7.9375l4.496094 75.3125h-14.949219c-11.226562 0-20.777344 7.308594-24.152344 17.417969h-13.394531c-.941406-5.203125-2.84375-10.132812-5.597656-14.558594h1.601562l6.746094 6.75c2.929687 2.929688 7.679687 2.925782 10.605469 0 2.929687-2.929687 2.929687-7.679687 0-10.609375l-8.941406-8.941406c-1.410157-1.410156-3.316407-2.199219-5.304688-2.199219h-86.945312c-1.988282 0-3.894532.789063-5.300782 2.199219l-10.140625 10.136719c-2.929687 2.929687-2.929687 7.679687 0 10.605468 1.464844 1.464844 3.382813 2.199219 5.304688 2.199219 1.917969 0 3.839843-.734375 5.300781-2.199219l7.941406-7.941406h8.105469c-2.753906 4.429688-4.65625 9.363282-5.597656 14.558594h-102.683594c-4.140625 0-7.5 3.355469-7.5 7.5 0 4.140625 3.359375 7.5 7.5 7.5h102.6875c3.546875 19.476562 20.621094 34.292969 41.105469 34.292969s37.558594-14.816407 41.105468-34.292969h13.066407c3.035156 10.667969 12.859375 18.503906 24.488281 18.503906h29.347656c14.042969 0 25.464844-11.421875 25.464844-25.460937 0-13.832031-11.085938-25.113281-24.835938-25.445313zm-108.636718 51.691406c-14.773438 0-26.792969-12.015624-26.792969-26.792968 0-8.84375 4.332031-17.039063 11.601563-22.054688h30.386718c7.273438 5.015625 11.597656 13.1875 11.597656 22.054688 0 14.777344-12.019531 26.792968-26.792968 26.792968zm108.007812-15.785156h-29.347656c-5.769531 0-10.460938-4.691406-10.460938-10.460937s4.691407-10.464844 10.460938-10.464844h29.347656c5.769532 0 10.464844 4.695313 10.464844 10.464844s-4.695312 10.460937-10.464844 10.460937zm0 0"/><path d="m129.738281 407.09375c11.335938 0 20.5625-9.226562 20.5625-20.566406 0-11.335938-9.226562-20.5625-20.5625-20.5625-11.339843 0-20.566406 9.226562-20.566406 20.5625 0 11.339844 9.226563 20.566406 20.566406 20.566406zm0-26.128906c3.066407 0 5.5625 2.496094 5.5625 5.5625 0 3.070312-2.496093 5.566406-5.5625 5.566406-3.070312 0-5.566406-2.496094-5.566406-5.566406 0-3.066406 2.496094-5.5625 5.566406-5.5625zm0 0"/><path d="m378.527344 365.964844c-11.339844 0-20.5625 9.226562-20.5625 20.5625 0 11.339844 9.222656 20.566406 20.5625 20.566406s20.566406-9.226562 20.566406-20.566406c0-11.335938-9.226562-20.5625-20.566406-20.5625zm0 26.128906c-3.066406 0-5.5625-2.496094-5.5625-5.566406 0-3.066406 2.496094-5.5625 5.5625-5.5625 3.070312 0 5.566406 2.496094 5.566406 5.5625 0 3.070312-2.496094 5.566406-5.566406 5.566406zm0 0"/><path d="m193.371094 266.414062c0 10.140626 8.25 18.386719 18.390625 18.386719h70.398437c10.136719 0 18.386719-8.246093 18.386719-18.386719v-22.5c0-1.15625-.121094-2.285156-.328125-3.386718h7.335938c-.207032 1.101562-.324219 2.230468-.324219 3.386718v22.5c0 10.140626 8.246093 18.386719 18.386719 18.386719h89.996093c10.136719 0 18.382813-8.246093 18.382813-18.386719v-12.410156c0-4.871094-1.230469-9.460937-3.394532-13.476562h34.308594l.691406 11.59375c.238282 3.980468 3.542969 7.054687 7.480469 7.054687.148438 0 .300781-.007812.453125-.015625 4.136719-.246094 7.285156-3.800781 7.039063-7.933594l-.679688-11.398437c2.570313-1.1875 4.355469-3.78125 4.355469-6.800781 0-4.140625-3.359375-7.5-7.5-7.5-6.730469-16.960938-23.289062-28.863282-42.449219-28.863282h-8.050781v-28.292968c0-4.21875-1.308594-8.230469-3.660156-11.554688 2.296875-3.257812 3.660156-7.222656 3.660156-11.503906v-28.597656c0-2.0625-.3125-4.046875-.894531-5.917969 9.429687-7.019531 15.09375-18.054687 15.09375-30.089844v-34.488281c0-20.714844-16.851563-37.566406-37.5625-37.566406h-12.539063c-3.042968-5.167969-8.652344-8.652344-15.074218-8.652344h-4.664063c-6.421875 0-12.03125 3.484375-15.074219 8.652344h-62.324218c-3.046876-5.167969-8.652344-8.652344-15.074219-8.652344h-4.667969c-6.417969 0-12.027344 3.484375-15.070312 8.652344h-16.164063c-4.140625 0-7.5 3.359375-7.5 7.5 0 4.144531 3.359375 7.5 7.5 7.5h13.734375v77.480468c-.804688.648438-1.550781 1.371094-2.246094 2.136719h-22.0625c-3.210937-4.007812-8.136718-6.589843-13.660156-6.589843h-19.5v-73.027344h9.558594c4.140625 0 7.5-3.355469 7.5-7.5 0-4.140625-3.359375-7.5-7.5-7.5h-11.984375c-3.046875-5.167969-8.652344-8.652344-15.074219-8.652344h-4.664062c-6.421876 0-12.03125 3.484375-15.074219 8.652344h-37.207031c-20.710938 0-37.5625 16.851562-37.5625 37.566406v34.488281c0 16.796875 10.886718 31.171875 26.523437 35.921875v80.035156h-20.363281c-19.070313 0-35.679688 11.925782-42.433594 28.867188h-5.386719c-4.140625 0-7.5 3.355469-7.5 7.5 0 4.140625 3.359375 7.5 7.5 7.5h1.957031l-9.785156 53.023438c-13.203125 12.28125-20.71875 29.457031-20.71875 47.542968v22.230469c-9.515625 3.691406-16.285156 12.941406-16.285156 23.746094 0 14.039062 11.421875 25.460937 25.464844 25.460937h29.347656c11.628906 0 21.453125-7.835937 24.488281-18.503906h9.332031c3.542969 19.476562 20.621094 34.292969 41.105469 34.292969s37.558594-14.816407 41.105469-34.292969h29.714844c4.140625 0 7.5-3.359375 7.5-7.5 0-4.144531-3.359375-7.5-7.5-7.5h-29.714844c-3.546875-19.476562-20.621094-34.292969-41.105469-34.292969s-37.558593 14.816407-41.105469 34.292969h-9.667968c-3.375-10.109375-12.925782-17.417969-24.152344-17.417969h-23.527344v-4.984375c11.691406-.59375 21.042969-11.855468 21.042969-25.621094 0-8.949218-3.824219-16.828124-9.816406-21.417968 1.882812-2.3125 3.972656-4.480469 6.277343-6.453125 1.304688-1.117188 2.1875-2.648438 2.5-4.335938l10.675782-57.839843c.023437-.144532.035156-.285157.054687-.429688h11.898438c-.042969.234375-.101563.464844-.136719.703125l-3.320312 22.5c-.777344 5.289063.777343 10.648437 4.273437 14.699219 3.496094 4.046875 8.566406 6.371094 13.917969 6.371094h79.5625c1.15625 0 2.285156-.121094 3.386718-.328126v56.695313c0 4.140625 3.359376 7.5 7.5 7.5 4.140626 0 7.5-3.359375 7.5-7.5v-97.253906c0-1.15625-.121093-2.285157-.328124-3.386719h7.425781c-.207031 1.097656-.324219 2.230469-.324219 3.386719v22.496093zm-63.632813 93.324219c14.773438 0 26.789063 12.019531 26.789063 26.789063 0 14.777344-12.015625 26.792968-26.789063 26.792968-14.773437 0-26.792969-12.015624-26.792969-26.792968 0-14.769532 12.019532-26.789063 26.792969-26.789063zm-64.464843 27.335938c0 5.769531-4.695313 10.460937-10.460938 10.460937h-29.347656c-5.769532 0-10.464844-4.691406-10.464844-10.460937s4.695312-10.464844 10.464844-10.464844h29.347656c5.769531 0 10.460938 4.695313 10.460938 10.464844zm-27.945313-56.066407c0 5.667969-3.015625 9.773438-6.042969 10.515626v-.425782c0-6.308594 1.195313-12.472656 3.441406-18.207031 1.507813 1.886719 2.601563 4.714844 2.601563 8.117187zm381.667969-77.003906v12.410156c0 1.867188-1.519532 3.386719-3.386719 3.386719h-89.996094c-1.867187 0-3.386719-1.519531-3.386719-3.386719v-22.5c0-1.867187 1.519532-3.386718 3.386719-3.386718h79.910157c7.429687 0 13.472656 6.046875 13.472656 13.476562zm-183.496094-57.339844v-78.394531h13v27.042969c0 4.28125 1.363281 8.246094 3.664062 11.507812-2.34375 3.316407-3.664062 7.328126-3.664062 11.550782v28.292968zm60.136719-173.011718h57.46875v73.03125h-57.46875zm115.613281 93.0625v28.597656c0 2.773438-2.257812 5.027344-5.03125 5.027344h-24.039062v-38.65625h24.039062c2.773438 0 5.03125 2.253906 5.03125 5.03125zm-44.070312-5.03125v38.65625h-98.648438c-2.773438 0-5.03125-2.253906-5.03125-5.027344v-28.597656c0-2.777344 2.257812-5.03125 5.03125-5.03125zm-103.679688 85.285156v-28.597656c0-1.277344.492188-2.476563 1.324219-3.386719 1.203125.226563 2.4375.355469 3.707031.355469h98.648438v36.660156h-98.648438c-2.773438 0-5.03125-2.257812-5.03125-5.03125zm118.679688-31.628906h24.039062c1.273438 0 2.511719-.128906 3.714844-.359375.839844.917969 1.316406 2.117187 1.316406 3.390625v28.597656c0 2.773438-2.257812 5.03125-5.03125 5.03125h-24.039062zm43.269531-119.121094v34.488281c0 7.449219-3.605469 14.269531-9.582031 18.464844-2.863282-1.582031-6.152344-2.488281-9.648438-2.488281h-13.445312v-73.03125h10.109374c12.441407 0 22.566407 10.121094 22.566407 22.566406zm-54.84375-31.21875h4.667969c1.378906 0 2.5 1.121094 2.5 2.5v79.183594h-9.667969v-79.183594c0-1.378906 1.121093-2.5 2.5-2.5zm-97.136719 0h4.667969c1.378906 0 2.5 1.121094 2.5 2.5v79.183594h-9.667969v-79.183594c0-1.378906 1.125-2.5 2.5-2.5zm-52.96875 99.179688v87.488281c0 1.378906-1.121094 2.5-2.5 2.5h-87.488281c-1.375 0-2.5-1.121094-2.5-2.5v-87.488281c0-1.375 1.125-2.5 2.5-2.5h87.488281c1.378906 0 2.5 1.125 2.5 2.5zm-44.167969-99.179688h4.667969c1.378906 0 2.5 1.121094 2.5 2.5v79.179688h-9.667969v-79.179688c0-1.378906 1.121094-2.5 2.5-2.5zm-74.839843 65.707031v-34.488281c0-12.445312 10.121093-22.566406 22.5625-22.566406h34.777343v73.027344h-28.320312c-5.078125 0-9.648438 2.191406-12.847657 5.660156-9.515624-2.777344-16.171874-11.453125-16.171874-21.632813zm-8.839844 130.957031h23.515625c3.167969 4.527344 8.410156 7.503907 14.34375 7.503907h87.488281c5.933594 0 11.179688-2.976563 14.34375-7.503907h22.621094c3.570312 3.300782 8.328125 5.335938 13.566406 5.335938h137.6875c5.234375 0 9.996094-2.035156 13.566406-5.335938h14.515625c10.664063 0 20.136719 5.496094 25.636719 13.863282h-392.898438c5.519532-8.359375 14.996094-13.863282 25.613282-13.863282zm78.949218 32.25v22.5c0 1.867188-1.519531 3.386719-3.386718 3.386719h-79.5625c-1.351563 0-2.1875-.734375-2.5625-1.171875-.378906-.4375-.984375-1.375-.789063-2.707031l3.320313-22.5c.242187-1.648437 1.683594-2.894531 3.351562-2.894531h76.242188c1.867187 0 3.386718 1.519531 3.386718 3.386718zm110.558594-3.386718c1.867188 0 3.386719 1.523437 3.386719 3.386718v22.5c0 1.867188-1.519531 3.386719-3.386719 3.386719h-70.398437c-1.871094 0-3.390625-1.519531-3.390625-3.386719v-22.5c0-1.863281 1.519531-3.386718 3.390625-3.386718zm0 0"/><path d="m311.191406 292.199219c-4.144531 0-7.5 3.359375-7.5 7.5 0 4.144531 3.355469 7.5 7.5 7.5h142.25c4.140625 0 7.5-3.355469 7.5-7.5 0-4.140625-3.359375-7.5-7.5-7.5zm0 0"/><path d="m139.90625 292.199219c-4.140625 0-7.5 3.359375-7.5 7.5 0 4.144531 3.359375 7.5 7.5 7.5h12.339844c4.140625 0 7.5-3.355469 7.5-7.5 0-4.140625-3.359375-7.5-7.5-7.5zm0 0"/><path d="m293.046875 186.332031h51.1875c4.144531 0 7.5-3.355469 7.5-7.5 0-4.140625-3.355469-7.5-7.5-7.5h-51.1875c-4.144531 0-7.5 3.359375-7.5 7.5 0 4.144531 3.355469 7.5 7.5 7.5zm0 0"/><path d="m293.046875 134.675781h51.1875c4.144531 0 7.5-3.359375 7.5-7.5 0-4.144531-3.355469-7.5-7.5-7.5h-51.1875c-4.144531 0-7.5 3.355469-7.5 7.5 0 4.140625 3.355469 7.5 7.5 7.5zm0 0"/><path d="m196.539062 197.667969h8c4.144532 0 7.5-3.359375 7.5-7.5 0-4.144531-3.355468-7.5-7.5-7.5h-8c-4.140624 0-7.5 3.355469-7.5 7.5 0 4.140625 3.359376 7.5 7.5 7.5zm0 0"/><path d="m196.539062 179.667969h8c4.144532 0 7.5-3.355469 7.5-7.5 0-4.140625-3.355468-7.5-7.5-7.5h-8c-4.140624 0-7.5 3.359375-7.5 7.5 0 4.144531 3.359376 7.5 7.5 7.5zm0 0"/></svg>