<svg height="512pt" viewBox="0 -43 512 511" width="512pt" xmlns="http://www.w3.org/2000/svg"><path d="m407.316406 106.890625h-287.242187c-17.105469 0-30.972657-13.867187-30.972657-30.972656v-35.53125c0-17.105469 13.867188-30.972657 30.972657-30.972657h287.242187c17.105469 0 30.972656 13.867188 30.972656 30.972657v35.53125c0 17.105469-13.867187 30.972656-30.972656 30.972656zm0 0" fill="#38aaff"/><path d="m438.289062 53.257812v22.664063c0 17.097656-13.863281 30.964844-30.976562 30.964844h-287.234375c-17.109375 0-30.976563-13.867188-30.976563-30.964844v-22.664063c0 17.097657 13.863282 30.964844 30.976563 30.964844h287.234375c17.113281 0 30.976562-13.867187 30.976562-30.964844zm0 0" fill="#2081f6"/><g fill="#fff0cf"><path d="m178.734375 113.132812h-4.804687c-5.691407 0-10.304688-4.609374-10.304688-10.300781v-92.03125c0-5.6875 4.613281-10.300781 10.304688-10.300781h4.804687c5.691406 0 10.304687 4.613281 10.304687 10.300781v92.03125c0 5.691407-4.613281 10.300781-10.304687 10.300781zm0 0"/><path d="m278.804688 113.132812h-4.808594c-5.6875 0-10.300782-4.609374-10.300782-10.300781v-92.03125c0-5.6875 4.613282-10.300781 10.300782-10.300781h4.808594c5.691406 0 10.300781 4.613281 10.300781 10.300781v92.03125c0 5.691407-4.613281 10.300781-10.300781 10.300781zm0 0"/><path d="m378.871094 113.132812h-4.804688c-5.691406 0-10.304687-4.609374-10.304687-10.300781v-92.03125c0-5.6875 4.613281-10.300781 10.304687-10.300781h4.804688c5.691406 0 10.304687 4.613281 10.304687 10.300781v92.03125c0 5.691407-4.613281 10.300781-10.304687 10.300781zm0 0"/></g><path d="m487.9375 390.96875h-471.160156v-46.800781c0-10.351563 2.703125-20.320313 7.636718-29.058594 3.375-5.988281 7.796876-11.382813 13.097657-15.925781l10.992187-59.585938c.167969-2.320312.527344-4.574218 1.078125-6.761718 4.304688-17.191407 19.839844-29.730469 38.140625-29.730469h351.957032c18.3125 0 33.835937 12.558593 38.128906 29.730469.582031 2.332031.964844 4.753906 1.109375 7.234374zm0 0" fill="#e6f072"/><path d="m487.933594 390.96875h-21.953125l-9.023438-150.898438c-.144531-2.484374-.523437-4.90625-1.101562-7.234374-4.296875-17.171876-19.820313-29.730469-38.136719-29.730469h21.964844c18.304687 0 33.828125 12.558593 38.125 29.730469.585937 2.328124.96875 4.75 1.113281 7.234374zm0 0" fill="#cbd359"/><path d="m477.808594 232.835938h-428.226563c4.308594-17.191407 19.84375-29.730469 38.136719-29.730469h351.960938c18.308593 0 33.832031 12.558593 38.128906 29.730469zm0 0" fill="#d0f4ef"/><path d="m477.808594 232.835938h-21.953125c-4.296875-17.171876-19.820313-29.730469-38.136719-29.730469h21.960938c18.308593 0 33.832031 12.558593 38.128906 29.730469zm0 0" fill="#abe0da"/><path d="m38.453125 333.773438c0 10.316406-6.691406 18.695312-14.949219 18.695312-2.421875 0-4.707031-.71875-6.726562-2.007812v-6.292969c0-10.351563 2.703125-20.320313 7.636718-29.058594 7.828126.585937 14.039063 8.726563 14.039063 18.664063zm0 0" fill="#f55"/><path d="m48.738281 410.035156h-30.234375c-10.21875 0-18.503906-8.285156-18.503906-18.503906 0-10.222656 8.285156-18.507812 18.503906-18.507812h30.234375c10.222657 0 18.503907 8.285156 18.503907 18.507812 0 10.21875-8.28125 18.503906-18.503907 18.503906zm0 0" fill="#abe0da"/><path d="m493.496094 410.035156h-30.234375c-10.222657 0-18.503907-8.285156-18.503907-18.503906 0-10.222656 8.28125-18.507812 18.503907-18.507812h30.234375c10.21875 0 18.503906 8.285156 18.503906 18.507812 0 10.21875-8.285156 18.503906-18.503906 18.503906zm0 0" fill="#abe0da"/><path d="m161.253906 390.96875c0 19.511719-15.816406 35.328125-35.328125 35.328125s-35.328125-15.816406-35.328125-35.328125 15.816406-35.328125 35.328125-35.328125 35.328125 15.816406 35.328125 35.328125zm0 0" fill="#4c78a0"/><path d="m417.554688 390.96875c0 19.511719-15.816407 35.328125-35.328126 35.328125-19.511718 0-35.328124-15.816406-35.328124-35.328125s15.816406-35.328125 35.328124-35.328125c19.511719 0 35.328126 15.816406 35.328126 35.328125zm0 0" fill="#4c78a0"/><path d="m139.382812 390.96875c0 7.433594-6.023437 13.460938-13.457031 13.460938-7.433593 0-13.457031-6.027344-13.457031-13.460938 0-7.429688 6.023438-13.457031 13.457031-13.457031 7.433594 0 13.457031 6.027343 13.457031 13.457031zm0 0" fill="#abe0da"/><path d="m395.683594 390.96875c0 7.433594-6.023438 13.460938-13.457032 13.460938-7.433593 0-13.457031-6.027344-13.457031-13.460938 0-7.429688 6.023438-13.457031 13.457031-13.457031 7.433594 0 13.457032 6.027343 13.457032 13.457031zm0 0" fill="#abe0da"/><path d="m176.78125 244.050781v23.183594c0 6.191406-5.023438 11.214844-11.214844 11.214844h-81.96875c-6.84375 0-12.089844-6.082031-11.09375-12.855469l3.421875-23.179688c.808594-5.507812 5.527344-9.578124 11.089844-9.578124h78.550781c6.191406 0 11.214844 5.023437 11.214844 11.214843zm0 0" fill="#60daff"/><path d="m157.90625 232.835938-45.609375 45.613281h-24.335937l45.609374-45.613281zm0 0" fill="#a0ecff"/><path d="m282.949219 278.445312h-72.523438c-6.195312 0-11.214843-5.023437-11.214843-11.214843v-23.179688c0-6.195312 5.019531-11.214843 11.214843-11.214843h72.523438c6.195312 0 11.214843 5.019531 11.214843 11.214843v23.179688c0 6.191406-5.019531 11.214843-11.214843 11.214843zm0 0" fill="#60daff"/><path d="m287.328125 232.835938-45.609375 45.613281h-24.339844l45.613282-45.613281zm0 0" fill="#a0ecff"/><path d="m431.648438 254.449219v12.785156c0 6.191406-5.027344 11.214844-11.214844 11.214844h-92.71875c-6.191406 0-11.214844-5.023438-11.214844-11.214844v-23.183594c0-6.191406 5.023438-11.214843 11.214844-11.214843h82.320312c5.160156 0 9.914063 1.816406 13.625 4.835937 4.867188 3.96875 7.988282 10.003906 7.988282 16.777344zm0 0" fill="#60daff"/><path d="m423.660156 237.671875-40.789062 40.777344h-47.136719l45.613281-45.613281h28.6875c5.160156 0 9.914063 1.816406 13.625 4.835937zm0 0" fill="#a0ecff"/><path d="m176.777344 351.964844c-4.265625 0-7.722656-3.457032-7.722656-7.726563v-104.824219c0-4.265624 3.457031-7.726562 7.722656-7.726562 4.269531 0 7.726562 3.460938 7.726562 7.726562v104.824219c.003906 4.269531-3.457031 7.726563-7.726562 7.726563zm0 0" fill="#cbd359"/><path d="m483.410156 240.5625h-444.949218c-4.269532 0-7.726563-3.460938-7.726563-7.726562 0-4.265626 3.457031-7.726563 7.726563-7.726563h444.949218c4.265625 0 7.726563 3.460937 7.726563 7.726563 0 4.265624-3.460938 7.726562-7.726563 7.726562zm0 0" fill="#abe0da"/><path d="m459.398438 309.246094h-146.542969c-4.265625 0-7.726563-3.457032-7.726563-7.726563 0-4.265625 3.460938-7.722656 7.726563-7.722656h146.542969c4.269531 0 7.726562 3.457031 7.726562 7.722656.003906 4.269531-3.457031 7.726563-7.726562 7.726563zm0 0" fill="#d0f4ef"/><path d="m149.113281 309.246094h-12.707031c-4.269531 0-7.726562-3.457032-7.726562-7.726563 0-4.265625 3.457031-7.722656 7.726562-7.722656h12.707031c4.269531 0 7.726563 3.457031 7.726563 7.722656 0 4.269531-3.457032 7.726563-7.726563 7.726563zm0 0" fill="#4c78a0"/><path d="m323.648438 370.964844 10.445312-10.445313h89.566406l9.21875 9.214844h8.210938v-31.335937h-124.589844v32.566406zm0 0" fill="#e6f072"/><path d="m323.648438 378.691406c-1.976563 0-3.957032-.753906-5.464844-2.261718-3.015625-3.019532-3.015625-7.910157 0-10.929688l10.445312-10.445312c1.449219-1.449219 3.414063-2.261719 5.464844-2.261719h89.566406c2.050782 0 4.015625.8125 5.464844 2.261719l9.214844 9.214843c3.015625 3.019531 3.015625 7.910157 0 10.929688-3.019532 3.015625-7.910156 3.015625-10.929688 0l-6.949218-6.953125h-83.167969l-8.183594 8.183594c-1.507813 1.507812-3.484375 2.261718-5.460937 2.261718zm0 0" fill="#abe0da"/><path d="m423.660156 166.226562v29.460938c0 7.128906-5.777344 12.910156-12.90625 12.910156h-141.847656c-7.128906 0-12.90625-5.78125-12.90625-12.910156v-29.460938c0-7.128906 5.777344-12.910156 12.90625-12.910156h141.847656c7.128906 0 12.90625 5.78125 12.90625 12.910156zm0 0" fill="#f55"/><path d="m423.660156 166.226562v29.460938c0 7.128906-5.777344 12.910156-12.90625 12.910156h-32.492187v-55.28125h32.492187c7.128906 0 12.90625 5.78125 12.90625 12.910156zm0 0" fill="#e6f072"/><path d="m346.898438 184.730469h-52.734376c-4.265624 0-7.726562-3.457031-7.726562-7.726563 0-4.265625 3.460938-7.726562 7.726562-7.726562h52.734376c4.265624 0 7.726562 3.460937 7.726562 7.726562 0 4.269532-3.460938 7.726563-7.726562 7.726563zm0 0" fill="#f72b2b"/><path d="m423.660156 113.007812v29.464844c0 7.128906-5.777344 12.90625-12.90625 12.90625h-141.847656c-7.128906 0-12.90625-5.777344-12.90625-12.90625v-29.464844c0-7.128906 5.777344-12.90625 12.90625-12.90625h141.847656c7.128906 0 12.90625 5.777344 12.90625 12.90625zm0 0" fill="#d6bcab"/><path d="m423.660156 113.007812v29.464844c0 7.128906-5.777344 12.90625-12.90625 12.90625h-32.492187v-55.28125h32.492187c7.128906.003906 12.90625 5.78125 12.90625 12.910156zm0 0" fill="#628fb1"/><path d="m346.898438 131.515625h-52.734376c-4.265624 0-7.726562-3.460937-7.726562-7.726563 0-4.269531 3.460938-7.726562 7.726562-7.726562h52.734376c4.265624 0 7.726562 3.457031 7.726562 7.726562 0 4.265626-3.460938 7.726563-7.726562 7.726563zm0 0" fill="#fff0cf"/><path d="m216.851562 210.832031h-90.125c-5.691406 0-10.304687-4.613281-10.304687-10.304687v-90.125c0-5.691406 4.613281-10.304688 10.304687-10.304688h90.125c5.691407 0 10.304688 4.613282 10.304688 10.304688v90.125c0 5.691406-4.613281 10.304687-10.304688 10.304687zm0 0" fill="#eea97b"/><path d="m202.984375 196.40625h-8.238281c-4.269532 0-7.726563-3.457031-7.726563-7.726562 0-4.265626 3.457031-7.726563 7.726563-7.726563h8.238281c4.269531 0 7.726563 3.460937 7.726563 7.726563 0 4.269531-3.457032 7.726562-7.726563 7.726562zm0 0" fill="#c87c5b"/><path d="m202.984375 177.867188h-8.238281c-4.269532 0-7.726563-3.460938-7.726563-7.726563 0-4.269531 3.457031-7.726563 7.726563-7.726563h8.238281c4.269531 0 7.726563 3.457032 7.726563 7.726563.003906 4.265625-3.457032 7.726563-7.726563 7.726563zm0 0" fill="#c87c5b"/></svg>