<svg id="Filled_outline" height="512" viewBox="0 0 64 64" width="512" xmlns="http://www.w3.org/2000/svg" data-name="Filled outline"><path d="m4 29h4a0 0 0 0 1 0 0v4a0 0 0 0 1 0 0h-4a1 1 0 0 1 -1-1v-2a1 1 0 0 1 1-1z" fill="#b38652"/><path d="m57 29h4a0 0 0 0 1 0 0v4a0 0 0 0 1 0 0h-4a1 1 0 0 1 -1-1v-2a1 1 0 0 1 1-1z" fill="#b38652" transform="matrix(-1 0 0 -1 117 62)"/><path d="m51 10a6 6 0 0 1 6 6v1a0 0 0 0 1 0 0h-12a0 0 0 0 1 0 0v-1a6 6 0 0 1 6-6z" fill="#f2d378"/><path d="m44 17h14a1 1 0 0 1 1 1v5a0 0 0 0 1 0 0h-16a0 0 0 0 1 0 0v-5a1 1 0 0 1 1-1z" fill="#ffde7e"/><g fill="#f2d378"><path d="m49 23h-6v6h4z"/><path d="m53 23h6v6h-4z"/><path d="m31 10a6 6 0 0 1 6 6v1a0 0 0 0 1 0 0h-12a0 0 0 0 1 0 0v-1a6 6 0 0 1 6-6z"/></g><path d="m24 17h14a1 1 0 0 1 1 1v5a0 0 0 0 1 0 0h-16a0 0 0 0 1 0 0v-5a1 1 0 0 1 1-1z" fill="#ffde7e"/><path d="m29 23h-6v6h4z" fill="#f2d378"/><path d="m33 23h6v6h-4z" fill="#f2d378"/><path d="m15.5 50.5a2.12132 2.12132 0 0 0 3 0 2.12132 2.12132 0 0 1 3 0 2.12132 2.12132 0 0 0 3 0 2.12132 2.12132 0 0 1 3 0 2.12132 2.12132 0 0 0 3 0 2.12132 2.12132 0 0 1 3 0 2.12132 2.12132 0 0 0 3 0 2.12132 2.12132 0 0 1 3 0 2.12132 2.12132 0 0 0 3 0 2.12132 2.12132 0 0 1 3 0 2.12132 2.12132 0 0 0 3 0 2.12132 2.12132 0 0 1 3 0 2.12132 2.12132 0 0 0 3 0l.87868-.87868a2.12133 2.12133 0 0 0 .62132-1.5v-19.12132h-48v19.12132a2.12133 2.12133 0 0 0 .62132 1.5l.87868.87868a2.12132 2.12132 0 0 0 3 0 2.12132 2.12132 0 0 1 3 0z" fill="#faa"/><path d="m8 21h9a0 0 0 0 1 0 0v2a2 2 0 0 1 -2 2h-5a2 2 0 0 1 -2-2v-2a0 0 0 0 1 0 0z" fill="#d6d6d6"/><path d="m8 17h9a0 0 0 0 1 0 0v2a2 2 0 0 1 -2 2h-5a2 2 0 0 1 -2-2v-2a0 0 0 0 1 0 0z" fill="#d6d6d6"/><path d="m35.16132 33.00424a3.00014 3.00014 0 0 0 -3.16132 2.99576 3.00014 3.00014 0 0 0 -3.16132-2.99576 3.11446 3.11446 0 0 0 -2.83868 3.16549v3.00184a2 2 0 0 0 .58579 1.41422l4 4a2 2 0 0 0 2.82842 0l4-4a2 2 0 0 0 .58579-1.41422v-3.00184a3.11446 3.11446 0 0 0 -2.83868-3.16549z" fill="#e65d52"/><path d="m8 25h9a0 0 0 0 1 0 0v2a2 2 0 0 1 -2 2h-5a2 2 0 0 1 -2-2v-2a0 0 0 0 1 0 0z" fill="#d6d6d6"/><path d="m4 34h3v14.12109a3.09856 3.09856 0 0 0 .91406 2.207l.87894.87891a3.19237 3.19237 0 0 0 4.207.16715v5.62585h2v-5.62585a3.19237 3.19237 0 0 0 4.207-.16712 1.148 1.148 0 0 1 1.58594 0 3.19507 3.19507 0 0 0 4.41406 0 1.148 1.148 0 0 1 1.58594 0 3.19507 3.19507 0 0 0 4.41406 0 1.148 1.148 0 0 1 1.58594 0 3.19507 3.19507 0 0 0 4.41406 0 1.148 1.148 0 0 1 1.58594 0 3.19507 3.19507 0 0 0 4.41406 0 1.148 1.148 0 0 1 1.58594 0 3.19237 3.19237 0 0 0 4.20706.16712v5.62585h2v-5.62262a3.09159 3.09159 0 0 0 4.207-.17035l.87891-.87891a3.09856 3.09856 0 0 0 .91409-2.20703v-14.12109h3a2.00229 2.00229 0 0 0 2-2v-2a2.00229 2.00229 0 0 0 -2-2v-10a2.00229 2.00229 0 0 0 -2-2 7.005 7.005 0 0 0 -6-6.9201v-2.0799h-2v2.0799a7.005 7.005 0 0 0 -6 6.9201 2.00229 2.00229 0 0 0 -2 2v10h-2v-10a2.00229 2.00229 0 0 0 -2-2 7.005 7.005 0 0 0 -6-6.9201v-2.0799h-2v2.0799a7.005 7.005 0 0 0 -6 6.9201 2.00229 2.00229 0 0 0 -2 2v10h-4.18427a2.96457 2.96457 0 0 0 .18427-1v-1h2v-2h-2.18427a2.96457 2.96457 0 0 0 .18427-1v-1h2v-2h-2.18427a2.96457 2.96457 0 0 0 .18427-1v-1h2v-2h-15v2h2v1a2.96485 2.96485 0 0 0 .18433 1h-2.18433v2h2v1a2.96485 2.96485 0 0 0 .18433 1h-2.18433v2h2v1a2.96485 2.96485 0 0 0 .18433 1h-3.18433a2.00229 2.00229 0 0 0 -2 2v2a2.00229 2.00229 0 0 0 2 2zm56.001-2h-3.001v-2h3zm-2.001-4h-2.2793l-1.333-4h3.6123zm-4.38745 0h-5.2251l1.3335-4h2.5581zm-2.61255-17a5.00588 5.00588 0 0 1 5 5h-10a5.00588 5.00588 0 0 1 5-5zm-7 7h14v4h-14zm0 6h3.6123l-1.333 4h-2.2793zm-6 4h-2.2793l-1.333-4h3.6123zm-4.38745 0h-5.2251l1.3335-4h2.5581zm-2.61255-17a5.00588 5.00588 0 0 1 5 5h-10a5.00588 5.00588 0 0 1 5-5zm-7 7h14v4h-14zm0 6h3.6123l-1.333 4h-2.2793zm31 6v18.12109a1.11307 1.11307 0 0 1 -.32812.793l-.87888.87891a1.148 1.148 0 0 1 -1.58594 0 3.12032 3.12032 0 0 0 -4.41406 0 1.148 1.148 0 0 1 -1.58594 0 3.19507 3.19507 0 0 0 -4.41406 0 1.148 1.148 0 0 1 -1.58594 0 3.19507 3.19507 0 0 0 -4.41406 0 1.148 1.148 0 0 1 -1.58594 0 3.19507 3.19507 0 0 0 -4.41406 0 1.148 1.148 0 0 1 -1.58594 0 3.19507 3.19507 0 0 0 -4.41406 0 1.148 1.148 0 0 1 -1.58594 0 3.19507 3.19507 0 0 0 -4.41406 0 1.148 1.148 0 0 1 -1.58594 0 3.19507 3.19507 0 0 0 -4.41406 0 1.148 1.148 0 0 1 -1.58594 0l-.87891-.87891a1.11307 1.11307 0 0 1 -.32815-.793v-18.12109zm-46-11v-1h7v1a1.001 1.001 0 0 1 -1 1h-5a1.001 1.001 0 0 1 -1-1zm0 4v-1h7v1a1.001 1.001 0 0 1 -1 1h-5a1.001 1.001 0 0 1 -1-1zm7 3v1a1.001 1.001 0 0 1 -1 1h-5a1.001 1.001 0 0 1 -1-1v-1zm-12 4h3v2h-3z"/><path d="m29.87891 45.29346a3.00422 3.00422 0 0 0 4.24218-.00049l4-4a2.98185 2.98185 0 0 0 .87891-2.12158v-3.17139a3.98325 3.98325 0 0 0 -7-2.6178 3.98325 3.98325 0 0 0 -7 2.6178v3.17139a2.98176 2.98176 0 0 0 .87891 2.12158zm-2.87891-9.29346a2 2 0 0 1 4 0v1h2v-1a2 2 0 0 1 4 0v3.17139a.99632.99632 0 0 1 -.293.70752l-4 3.99951a1.00053 1.00053 0 0 1 -1.41406.00049l-4-4a.99632.99632 0 0 1 -.29294-.70752z"/><path d="m15 37h2v2h-2z"/><path d="m19 37h4v2h-4z"/><path d="m47 37h2v2h-2z"/><path d="m41 37h4v2h-4z"/></svg>